<svg version="1.1" id="Layer_1" xmlns="http://www.w3.org/2000/svg" xmlns:xlink="http://www.w3.org/1999/xlink" x="0px" y="0px" viewBox="0 0 500 500" style="width: 180px;" xml:space="preserve" data-imageid="augmented-reality-50" imageName="Augmented Reality" class="illustrations_image">
<style type="text/css">
	.st0_augmented-reality-50{fill:#FFD685;}
	.st1_augmented-reality-50{fill:#68E1FD;}
	.st2_augmented-reality-50{opacity:0.22;fill:#68E1FD;enable-background:new    ;}
	.st3_augmented-reality-50{fill:#42210B;}
	.st4_augmented-reality-50{fill:#2B68E0;}
	.st5_augmented-reality-50{fill:#FDD400;}
	.st6_augmented-reality-50{fill:#B31327;}
	.st7_augmented-reality-50{fill:#ED4049;}
	.st8_augmented-reality-50{fill:#844308;}
	.st9_augmented-reality-50{fill:#FF6753;}
	.st10_augmented-reality-50{fill:#F7944B;}
</style>
<ellipse id="Base_augmented-reality-50" class="st0_augmented-reality-50" cx="250" cy="369.2" rx="175.6" ry="53.3"/>
<g id="Screen_augmented-reality-50">
	<polygon class="st1_augmented-reality-50 targetColor" points="341.3,119.9 341.3,197.7 411.3,237.4 411.3,159.6 &#9;" style="fill: rgb(104, 225, 253);"/>
	<path class="st2_augmented-reality-50 targetColor" d="M341.6,119.2c0,0-77.1-43.7-76.3-41.6S262.9,228,262.9,228l124.4,79.2l24.4-70.5v-77.8L341.6,119.2z" style="fill: rgb(104, 225, 253);"/>
	<circle class="st1_augmented-reality-50 targetColor" cx="386.9" cy="267.1" r="10.6" style="fill: rgb(104, 225, 253);"/>
	<circle class="st1_augmented-reality-50 targetColor" cx="299.5" cy="116.3" r="14.8" style="fill: rgb(104, 225, 253);"/>
	<path class="st3_augmented-reality-50" d="M406.4,151.2l9,5.1l-0.4-0.6v13.3c0,0.4,0.3,0.8,0.8,0.8s0.8-0.3,0.8-0.8v-13.3c0-0.3-0.1-0.5-0.4-0.6l-9-5.1&#10;&#9;&#9;c-0.4-0.2-0.8-0.1-1,0.3C406,150.5,406.1,151,406.4,151.2L406.4,151.2z"/>
	<path class="st3_augmented-reality-50" d="M348.5,118.1l-9.5-5.4l-1.4-0.8c-0.4-0.2-0.8-0.1-1,0.3c-0.1,0.1-0.1,0.2-0.1,0.4v14.6c0,0.4,0.3,0.8,0.8,0.8&#10;&#9;&#9;s0.8-0.3,0.8-0.8v-14.6l-1.1,0.6l9.5,5.4l1.4,0.8c0.4,0.2,0.8,0.1,1-0.3S348.9,118.3,348.5,118.1L348.5,118.1z"/>
	<path class="st3_augmented-reality-50" d="M414.4,233.9v12.2l1.1-0.6l-9.8-5.4l-1.4-0.8c-0.9-0.5-1.6,0.8-0.8,1.3l9.8,5.4l1.4,0.8c0.4,0.2,0.8,0.1,1-0.3&#10;&#9;&#9;c0.1-0.1,0.1-0.2,0.1-0.4v-12.2c0-0.4-0.3-0.8-0.8-0.8S414.4,233.5,414.4,233.9z"/>
</g>
<g id="Fish_3_augmented-reality-50">
	<path class="st3_augmented-reality-50" d="M273.5,206.4c0,0,1.8,2,3.9,1.1s13.5-7.4,17.2-15.5c0.3-2.5-1.2-4.8-3.5-5.6"/>
	<path class="st4_augmented-reality-50" d="M246.4,206.4c-0.4-0.7,1.4-17.6,16.2-28.5s32.8-4.9,32.8-4.9s4.4-13.6,7.7-11.7s5.3,17.2,2.6,19.2&#10;&#9;&#9;s-8.5,0.4-8.5,0.4s-4.9,13.4-15,21S251.9,216.9,246.4,206.4z"/>
	<path class="st3_augmented-reality-50" d="M256.9,182.9c-0.4,0.3,1.1-6.1,7.1-10.7s22.1-7.6,25-6.2s2.9,6.1,2.9,6.1S271.2,171.1,256.9,182.9z"/>
	<path class="st3_augmented-reality-50" d="M274.4,192.1c0.8,0,7.7-0.6,8.1,0.7s-6,6-8.1,6.4S274.4,192.1,274.4,192.1z"/>
	<circle class="st3_augmented-reality-50" cx="258.4" cy="195.8" r="1.5"/>
</g>
<g id="Fish_2_augmented-reality-50">
	<path class="st5_augmented-reality-50" d="M346.4,328.5c0,0-9.5-6.5-11.4-18.3s-14.9-51-39.6-57.9s-33.1,5-28.2,18.3s9.5,17.5,3.4,22.1&#10;&#9;&#9;s-11.9,4.2-4.8,14.5s34.1,23.6,49.4,23.2s23.6-1.1,29.3,3C344.5,333.4,348.7,334.2,346.4,328.5z"/>
	<path class="st5_augmented-reality-50" d="M276.7,284.5c-2.1-0.5-12.2-5.9-14.1-13.9s-1.6-21.8-8.3-20.4s-8.8,37.2-4.3,38.8s8.3-7.5,12.2-4.5&#10;&#9;&#9;s14.5,11.2,14.5,11.2"/>
	<ellipse class="st3_augmented-reality-50" cx="318.3" cy="303.2" rx="2.5" ry="4.7"/>
	<path class="st4_augmented-reality-50" d="M304.9,289.4c-0.1-1.4-0.3-2.9-0.6-4.3c-0.6-2.9-1.3-5.7-1.9-8.5c-1-4.3,1.3,15.6,0,21.9s-6.2,12.7-6.2,12.7&#10;&#9;&#9;c3.4-3.6,8.6-7.6,8.8-12.8C305.1,295.4,305.1,292.4,304.9,289.4z"/>
	<path class="st4_augmented-reality-50" d="M298.6,287.3c-0.1-1.4-0.3-2.9-0.6-4.3c-0.6-2.9-1.2-5.7-1.9-8.5c0,0,1.3,15.6,0,21.9s-6.2,12.7-6.2,12.7&#10;&#9;&#9;c3.4-3.6,8.6-7.6,8.8-12.8C298.8,293.3,298.8,290.3,298.6,287.3z"/>
	<path class="st4_augmented-reality-50" d="M290.7,283.9c-0.1-1.4-0.3-2.9-0.6-4.3c-0.6-2.9-1.2-5.7-1.9-8.5c0,0,1.3,15.6,0,21.9s-6.1,12.7-6.1,12.7&#10;&#9;&#9;c3.4-3.6,8.6-7.6,8.8-12.8C290.9,289.9,290.9,286.9,290.7,283.9z"/>
</g>
<g id="Fish_1_augmented-reality-50">
	<path class="st6_augmented-reality-50" d="M373.2,186.9l-12.8,14.5c0,0,1.8,2,3.9,1.1c3.2-1.6,6.1-3.5,8.9-5.7L373.2,186.9z"/>
	<path class="st7_augmented-reality-50" d="M373.2,166.4c-8-0.4-15.8,1.9-22.4,6.5c-14.8,10.9-16.6,27.8-16.2,28.5c5.5,10.5,25.7,3,35.8-4.6&#10;&#9;&#9;c1-0.7,1.9-1.5,2.8-2.3V166.4z"/>
	<path class="st6_augmented-reality-50" d="M373.2,160.7c-5.6,0.1-17.2,2.9-22.2,6.6c-6.1,4.5-7.5,12.5-7.2,12.2c9.6-8,22.2-10.8,29.4-11.8V160.7z"/>
	<path class="st6_augmented-reality-50" d="M361.3,187.1c0.8,0,7.7-0.6,8.1,0.7s-6,6-8.1,6.4S361.3,187.1,361.3,187.1z"/>
	<circle class="st6_augmented-reality-50" cx="345.3" cy="190.8" r="1.5"/>
</g>
<g id="Characterq_augmented-reality-50">
	<path class="st3_augmented-reality-50" d="M230,137.6l-12.4-6.6c-1.3-0.7-2.8-0.1-3.9,0.7c-0.4,0.3-0.4,0.4-0.3,0.8l0.5,1.8l1.8,6.8l2.5,9.3l2.6,9.7&#10;&#9;&#9;l2.2,8.1l1.2,4.4c0,0,0.1,0.3,0.1,0.3l3.6-2.2c0.4-0.3,0.7-0.7,0.8-1.2l2.4-30.1C230.9,138.6,230.6,137.9,230,137.6z"/>
	<path class="st8_augmented-reality-50" d="M215.3,131.7l12.6,7c0.6,0.3,1,1,0.9,1.7l-3,31c-0.1,1-1,1.7-1.9,1.6c-0.3,0-0.5-0.1-0.7-0.2l-11.6-7.1&#10;&#9;&#9;c-0.6-0.3-0.9-1-0.9-1.6l1.9-31c0.1-1,0.9-1.7,1.9-1.6C214.8,131.5,215.1,131.6,215.3,131.7z"/>
	<polygon class="st1_augmented-reality-50 targetColor" points="214.6,134.4 226.4,141.1 223.7,170.8 212.7,164.7 &#9;" style="fill: rgb(104, 225, 253);"/>
	<path class="st9_augmented-reality-50" d="M211.4,153c0,0,3.8-5.6,3.8-8.4s-3.4,0.9-3.4,0.9l0.4-6.9c0,0-2.6,4-3.9,5.9s-5.5,10.9-6.2,12.5&#10;&#9;&#9;s-7.5,5.9-7.5,5.9s2,6.4,4,6.8s12.2-8.7,12.2-8.7L211.4,153z"/>
	<path class="st10_augmented-reality-50" d="M198.7,155.3c0,0,7.6,6.7,6.3,14.3c0,0-9.5,18.9-19.8,22s-16.2-17.1-13.3-20.1S198.7,155.3,198.7,155.3z"/>
	<path class="st9_augmented-reality-50" d="M222.6,174.9c0,0,3.5-3.2,2.9-4.2s-2.2-10.1-1.4-11.9c1.3-3.2,4.7,4,4.7,4l1-12.7c0,0,3.7,4,3.5,6.3&#10;&#9;&#9;s0.2,17.4,0,18.5s-3.4,9.3-3.4,9.3"/>
	<path class="st9_augmented-reality-50" d="M138.6,340.3c-0.8,2-4.5,29.4-4.3,34.7s8.4,5.9,10.9,5.7s7.4-2.5,10.5-2.6s20.2-3.4,19.7-7.9s-3.5-8.9-7.3-9.1&#10;&#9;&#9;s-14.3,0.4-14.3,0.4l1.1-24.8"/>
	<path class="st7_augmented-reality-50" d="M142.1,210.9c0.1-0.4-4.2,20.2-4.6,37.4c-0.3,13-4.2,109.7-4.2,109.7s10.9,6.5,31.7,0.5&#10;&#9;&#9;c3-0.9,6.8-89.5,6.8-89.5l-7.1-45.8"/>
	<path class="st9_augmented-reality-50" d="M180.9,371.8c-0.7,2-3,29.6-2.5,34.9s8.6,5.5,11.1,5.1s7.2-2.9,10.3-3.1s20-4.4,19.3-8.9s-3.9-8.7-7.8-8.8&#10;&#9;&#9;s-14.3,1.2-14.3,1.2l-0.2-24.9"/>
	<path class="st7_augmented-reality-50" d="M181.4,220.6c0,0,14.7,48.6,20.1,92.4c1.3,10.5,2.9,67.7,2.9,67.7s-13.2,9.1-29.1,4c0,0-3.8-72.4-4.2-74.2&#10;&#9;&#9;c-6.1-24.6-14.9-54.1-16.4-91.3"/>
	<path class="st5_augmented-reality-50" d="M183,193.6c0.7-10.3,4.4-15.7,2.1-25.7c-7.4-8.1-21.4-17.8-22.9-18.1l-7.9,1.8c-6.8,1.6-11.7,7.6-11.9,14.6&#10;&#9;&#9;c-0.4,15.9-1,42.6-0.4,44.7c0.6,1.9,16.3,15.5,39.3,9.7C182.1,211.6,182.4,202.6,183,193.6z"/>
	<path class="st9_augmented-reality-50" d="M178.9,128.4c0,0,3.3,23.9-5.6,25.9s-18.5-8.5-19-13.4S167.2,119.8,178.9,128.4z"/>
	<path class="st8_augmented-reality-50" d="M183.6,133.6c1.4-0.1,2.4-1.3,2.3-2.7c0-0.1,0-0.2,0-0.3c-0.9-5-4.3-15-16.9-15.2c-9.6-0.2-15.7,4.1-18.6,10.6&#10;&#9;&#9;h-0.1c-0.1,0.1-0.1,0.2-0.2,0.4c-0.2,0.7-0.5,1.4-0.7,2.1c-0.9,3.1-1.2,6.4-0.9,9.6c0.4,9.1,7.3,14.2,16,15.2&#10;&#9;&#9;c0,0-3.6-13.4,2.2-11.3s10.7,1.5,8.9-7.9L183.6,133.6z"/>
	<path class="st8_augmented-reality-50" d="M159.8,127.2l0.8,0.9C160.6,128.2,160.6,127.6,159.8,127.2z"/>
	<path class="st8_augmented-reality-50" d="M156.6,123.7c-1.7-0.5-21.4-7.9-27.1,1.5s-0.8,23.9-7.7,25.9s-27,0.8-28.8,9.8c-1.8,8.7,7.3,13.7,5.1,17.7&#10;&#9;&#9;c-5.5,3.4-9.8,8-7.3,15c1.4,3.6,4.1,6.6,7.5,8.5c8.3,4.9,19.5,1.1,26.3-4.6c6-5.1,5.4-11,3.1-17.8c-1.8-5.2-4.9-11.5,1-15.3&#10;&#9;&#9;c8.6-5.7,18.7,0.8,21.6-5.7s-9.7-29,0.5-31c5.6-1.1,8.1-0.8,9.1-0.3L156.6,123.7z"/>
	<path class="st5_augmented-reality-50" d="M231.1,183.7c-1.4-4.6-4.4-7.4-8.5-9.2c-7.5,7.1-16.6,14.8-19.7,13.6c-4.4-1.8-13.2-22.3-25.7-23.4&#10;&#9;&#9;S165,181,165,181s21.9,33.7,33.7,34.3c9.6,0.5,26.9-16.3,33.7-24.4C232.2,188.5,231.8,186.1,231.1,183.7z"/>
	<path class="st3_augmented-reality-50" d="M219.1,399.8c-0.4-3.1-2.1-5.9-4.7-7.8c-3.1,4.1-7,7.3-12.4,8.5c-7.9,1.7-16.1,1-23.6-1.9&#10;&#9;&#9;c-0.2,2.7-0.2,5.4-0.1,8.1c0.5,5.4,8.6,5.5,11.1,5.1s7.2-2.9,10.3-3.1S219.8,404.3,219.1,399.8z"/>
	<path class="st3_augmented-reality-50" d="M170.4,361.8c-5.1,5.3-11.2,8.5-18.9,8.6c-3.9,0-7.8-0.4-11.6-1.2c-1.8-0.2-3.6-0.8-5.2-1.7&#10;&#9;&#9;c-0.3,2.5-0.4,5.1-0.4,7.6c0.3,5.4,8.4,5.8,10.9,5.6s7.4-2.5,10.4-2.6s20.2-3.5,19.7-8C174.8,366.6,173,363.2,170.4,361.8z"/>
</g>
</svg>