<svg version="1.1" id="Layer_1" xmlns="http://www.w3.org/2000/svg" xmlns:xlink="http://www.w3.org/1999/xlink" x="0px" y="0px" viewBox="0 0 500 500" style="width: 180px;" xml:space="preserve" data-imageid="designer-2-53" imageName="Designer 2" class="illustrations_image">
<style type="text/css">
	.st0_designer-2-53{fill:#FFB3A6;}
	.st1_designer-2-53{fill:url(#SVGID_1_);}
	.st2_designer-2-53{fill:#68E1FD;}
	.st3_designer-2-53{fill:#F2F2F2;}
	.st4_designer-2-53{fill:#4D4D4D;}
	.st5_designer-2-53{fill:url(#SVGID_00000132049099481247924200000012917622712900790203_);}
	.st6_designer-2-53{fill:#CCCCCC;}
	.st7_designer-2-53{fill:url(#SVGID_00000124855903219032698540000009318731398854593676_);}
	.st8_designer-2-53{fill:#56403D;}
	.st9_designer-2-53{fill:url(#SVGID_00000044149833182472897080000007169738378271434662_);}
	.st10_designer-2-53{fill:#7ACC92;}
	.st11_designer-2-53{fill:url(#SVGID_00000103951093080567842950000010803164294787853982_);}
	.st12_designer-2-53{fill:#E88831;}
	.st13_designer-2-53{fill:url(#SVGID_00000126313668501000709170000003564571416549412030_);}
	.st14_designer-2-53{fill:#F5604B;}
	.st15_designer-2-53{opacity:0.5;fill:#4D4D4D;enable-background:new    ;}
</style>
<path id="field_designer-2-53" class="st0_designer-2-53" d="M257,415l220.5-130.4c7-3.9,13-10.4,6.2-14.7L262.4,142.4c-3.3-2-8.4-3.4-11.7-1.4L19.2,275.3&#10;&#9;c-7,4.1-8.3,15.5-1.3,19.5l210,119.9C236.9,420,247.9,420.1,257,415z"/>
<g id="tab_designer-2-53">
	
		<linearGradient id="SVGID_1_-designer-2-53_designer-2-53" gradientUnits="userSpaceOnUse" x1="355.2721" y1="223.7854" x2="330.1521" y2="186.7854" gradientTransform="matrix(1 0 0 -1 0 502)">
		<stop offset="0" style="stop-color:#D4A397"/>
		<stop offset="1" style="stop-color:#FFB3A6;stop-opacity:0"/>
	</linearGradient>
	<path class="st1_designer-2-53" d="M349.3,330c0,0,42.4-23.7,42.6-24.1l-65.8-33.1l-37,21.4L349.3,330z"/>
	<path class="st2_designer-2-53 targetColor" d="M397.9,233.1l53.8,33.3c1.6,1,2,3,1.1,4.6c-0.3,0.5-0.7,0.9-1.2,1.1l-81.6,46.1c-2.3,1.3-5.2,1.3-7.5-0.1&#10;&#9;&#9;L309,286.8c-3.9-3.2-2.8-7.9,0-9.5l81.1-44.4C392.5,231.6,395.5,231.7,397.9,233.1z" style="fill: rgb(104, 225, 253);"/>
	<path class="st3_designer-2-53" d="M397.9,230.9l53.8,33.3c1.6,1,2,3,1.1,4.6c-0.3,0.5-0.7,0.9-1.2,1.1L369.9,316c-2.3,1.3-5.2,1.3-7.5-0.1&#10;&#9;&#9;L309,284.5c-2-1.2-2.6-3.7-1.5-5.7c0.4-0.6,0.9-1.1,1.5-1.5l81.1-46.6C392.5,229.3,395.5,229.4,397.9,230.9z"/>
	<polygon class="st4_designer-2-53" points="394.3,232.7 448.3,266.7 367.5,312.9 311.8,280.1 &#9;"/>
	<ellipse class="st4_designer-2-53" cx="336.1" cy="297.9" rx="1.9" ry="0.9"/>
	
		<linearGradient id="SVGID_00000039128554563285475340000010268861304587227279_-designer-2-53_designer-2-53" gradientUnits="userSpaceOnUse" x1="400.7599" y1="228.8168" x2="392.5499" y2="216.7168" gradientTransform="matrix(1 0 0 -1 0 502)">
		<stop offset="1.000000e-02" style="stop-color:#4D4D4D"/>
		<stop offset="1" style="stop-color:#F2F2F2"/>
	</linearGradient>
	<path style="fill:url(#SVGID_00000039128554563285475340000010268861304587227279_);" d="M396.3,289l7.1-13.1l-1.2-0.6l-14.9,8.6&#10;&#9;&#9;L396.3,289z"/>
	<path class="st6_designer-2-53" d="M459.5,240.8c0-0.1-0.1-0.2,0-0.3c-0.7-0.4-1.5-0.6-2.3-0.8l-50.2,29.9c0,0-3,2.4,2.5,5.5l50.9-30.3&#10;&#9;&#9;C460.3,243.5,460,242.1,459.5,240.8z"/>
	<path class="st6_designer-2-53" d="M406.9,269.6c0,0-5.8,6.5-5.9,7s8.5-1.4,8.5-1.4"/>
	<ellipse transform="matrix(0.866 -0.5 0.5 0.866 -59.6684 261.831)" class="st3_designer-2-53" cx="458.7" cy="242.3" rx="1.9" ry="3.1"/>
</g>
<g id="keyboard_designer-2-53">
	
		<linearGradient id="SVGID_00000179628973935794100320000014825960344855200166_-designer-2-53_designer-2-53" gradientUnits="userSpaceOnUse" x1="202.3517" y1="174.3733" x2="152.8817" y2="134.1033" gradientTransform="matrix(1 0 0 -1 0 502)">
		<stop offset="0" style="stop-color:#D4A397"/>
		<stop offset="1" style="stop-color:#FFB3A6;stop-opacity:0"/>
	</linearGradient>
	<path style="fill:url(#SVGID_00000179628973935794100320000014825960344855200166_);" d="M161.1,331.1l-35,19.5&#10;&#9;&#9;c0,0,32.7,25.8,47.4,32l35.1-20.9"/>
	<path class="st8_designer-2-53" d="M267.7,271.4l44,25.1c1.4,0.8,2,2.6,1.1,4.1c-0.3,0.5-0.7,0.9-1.1,1.1L189.6,372c-3,1.7-6.7,1.7-9.7,0&#10;&#9;&#9;l-41.1-23.8c-1.5-0.9-2-2.8-1.2-4.3c0.3-0.5,0.7-0.9,1.2-1.2l123.5-71.4C263.9,270.5,266,270.5,267.7,271.4z"/>
	<path class="st3_designer-2-53" d="M201.3,311.5l12.6,7.4l-9.3,5.4c-2.6-1.5-10.2-6-12.6-7.4L201.3,311.5z"/>
	<path class="st3_designer-2-53" d="M215,303.5l12.5,7.4l-11.8,6.9c-2.1-1.2-9.7-5.7-12.6-7.4L215,303.5z"/>
	<path class="st3_designer-2-53" d="M265,274.5l12.7,7.3l-11.3,6.6c-1.8-1-9.5-5.6-12.6-7.4L265,274.5z"/>
	<path class="st3_designer-2-53" d="M238.1,290.1l12.6,7.4l-9.3,5.4c-2.2-1.3-9.8-5.7-12.6-7.4L238.1,290.1z"/>
	<path class="st3_designer-2-53" d="M251.9,282.1l12.5,7.4l-11.8,6.8c-1.4-0.8-9.3-5.5-12.6-7.4L251.9,282.1z"/>
	<path class="st3_designer-2-53" d="M190,318l12.5,7.4l-8.9,5.2l-12.6-7.4L190,318z"/>
	<path class="st3_designer-2-53" d="M226.9,296.6l12.5,7.4l-9.9,5.7c-2.3-1.3-9.9-5.8-12.6-7.4L226.9,296.6z"/>
	<path class="st3_designer-2-53" d="M179.1,324.3l12.6,7.4l-11.8,6.9l-12.6-7.4L179.1,324.3z"/>
	<polygon class="st3_designer-2-53" points="165.4,332.3 177.9,339.7 156.8,352 144,344.7 &#9;"/>
	<path class="st3_designer-2-53" d="M279.3,284l12.7,7.3l-16.5,9.6c-2.2-1.2-9.7-5.7-12.6-7.4L279.3,284z"/>
	<path class="st3_designer-2-53" d="M247.4,302.5l12.5,7.5l-9.3,5.4c-2.5-1.5-10-5.9-12.6-7.4L247.4,302.5z"/>
	<path class="st3_designer-2-53" d="M224.3,315.9l12.6,7.4l-11.8,6.9c-2.4-1.4-9.9-5.8-12.6-7.4L224.3,315.9z"/>
	<path class="st3_designer-2-53" d="M236.1,309.1l12.6,7.4l-9.9,5.7c-2.6-1.5-10.1-6-12.6-7.4L236.1,309.1z"/>
	<path class="st3_designer-2-53" d="M210.5,323.9l12.6,7.4l-9.3,5.4c-2.9-1.7-10.5-6.1-12.6-7.4L210.5,323.9z"/>
	<path class="st3_designer-2-53" d="M199.2,330.5l12.6,7.4l-8.9,5.2l-12.6-7.4L199.2,330.5z"/>
	<path class="st3_designer-2-53" d="M261.1,294.5l12.5,7.5l-11.8,6.9c-1.9-1.1-9.5-5.6-12.6-7.4L261.1,294.5z"/>
	<path class="st3_designer-2-53" d="M188.4,336.8l12.6,7.4l-11.8,6.9c-2.7-1.6-10.3-6-12.6-7.4L188.4,336.8z"/>
	<polygon class="st3_designer-2-53" points="187.2,352.2 171.1,361.5 158.4,354.2 174.6,344.8 &#9;"/>
	<polygon class="st3_designer-2-53" points="196.6,350.9 205.9,356.5 195.1,362.7 185.6,357.3 &#9;"/>
	<polygon class="st3_designer-2-53" points="192.8,364 183.6,369.4 174.1,363.9 183.5,358.5 &#9;"/>
	<polygon class="st3_designer-2-53" points="295.1,293.7 304.8,299.1 293.8,305.6 284.2,300 &#9;"/>
	<polygon class="st3_designer-2-53" points="282.1,301.2 291.5,306.9 279.7,313.7 270.1,308.2 &#9;"/>
	<polygon class="st3_designer-2-53" points="268,309.4 277.4,315 208.1,355.2 198.6,349.7 &#9;"/>
</g>
<g id="plant_designer-2-53">
	
		<linearGradient id="SVGID_00000143604824053237290620000013164868324146159273_-designer-2-53_designer-2-53" gradientUnits="userSpaceOnUse" x1="1850.062" y1="309.2382" x2="1832.052" y2="289.4882" gradientTransform="matrix(1 0 0 -1 -1538.9301 502)">
		<stop offset="0" style="stop-color:#D4A397"/>
		<stop offset="1" style="stop-color:#FFB3A6;stop-opacity:0"/>
	</linearGradient>
	<path style="fill:url(#SVGID_00000143604824053237290620000013164868324146159273_);" d="M298.9,191L281,201.6&#10;&#9;&#9;c0,0,5.6,9.8,19.3,15.5l20.9-11.2"/>
	<ellipse class="st2_designer-2-53 targetColor" cx="313.5" cy="195" rx="16.6" ry="11.7" style="fill: rgb(104, 225, 253);"/>
	<ellipse class="st8_designer-2-53" cx="313.5" cy="188.1" rx="12.5" ry="5.1"/>
	<path class="st10_designer-2-53" d="M314.4,188.2c1-1.4,2-2.8,3-4.4c1.3-2.1,2.6-4.2,3.7-6.4c1.1-1.9,1.9-3.9,2.7-6c0.8-2.3,1.5-4.6,2-6.9&#10;&#9;&#9;c0.1-0.6,0.2-1.2,0.3-1.9c0-0.3,0.1-0.2,0.1-0.2s0-0.2,0-0.5c0.1-1.3,0.2-2.5,0.2-3.8c0.1-4.4-0.8-8.7-2.5-12.8&#10;&#9;&#9;c-4.5,6.5-7.5,14-8.9,21.8c-0.1,0.5-0.2,0.9-0.2,1.4c0,0-0.1,0.9-0.2,1.2s-0.1,1.1-0.1,1.2c-0.1,0.6-0.1,1.2-0.2,1.8&#10;&#9;&#9;c-0.2,2.3-0.3,4.6-0.3,6.9C314,182.5,314.1,185.4,314.4,188.2z"/>
	<path class="st10_designer-2-53" d="M314.7,188.4c0.1-1.7,0.1-3.4,0.1-5.4c0-2.4-0.1-4.9-0.3-7.3c-0.2-2.2-0.5-4.4-1-6.5&#10;&#9;&#9;c-0.5-2.3-1.2-4.6-2.1-6.9c-0.2-0.6-0.5-1.2-0.7-1.8c-0.1-0.3-0.1-0.2-0.1-0.2s-0.1-0.2-0.2-0.5c-0.6-1.1-1.2-2.2-1.9-3.3&#10;&#9;&#9;c-2.3-3.7-5.4-6.9-9-9.4c-0.3,7.9,1.2,15.8,4.3,23.1c0.2,0.4,0.4,0.9,0.5,1.3l0.5,1.1l0.5,1.1c0.3,0.5,0.5,1.1,0.8,1.6&#10;&#9;&#9;c1.1,2,2.3,4,3.5,5.9C311.3,183.8,313,186.1,314.7,188.4z"/>
	<path class="st10_designer-2-53" d="M314.8,189.3c-0.5-0.9-1-1.9-1.7-2.9c-0.8-1.3-1.6-2.6-2.5-3.9c-0.8-1.1-1.7-2.2-2.6-3.2&#10;&#9;&#9;c-1-1.1-2.2-2.1-3.4-3l-1-0.7c-0.1-0.1-0.1-0.1-0.1-0.1l-0.3-0.2c-0.7-0.4-1.4-0.8-2.1-1.2c-2.4-1.3-5.1-2-7.9-2.2&#10;&#9;&#9;c2.4,4.4,5.8,8.2,9.8,11.1l0.7,0.5l0.6,0.4l0.6,0.4l1,0.6c1.2,0.8,2.5,1.4,3.8,2.1C311.4,187.9,313.1,188.6,314.8,189.3z"/>
</g>
<g id="monitor_designer-2-53">
	
		<linearGradient id="SVGID_00000013903354676666517220000010662717875109869701_-designer-2-53_designer-2-53" gradientUnits="userSpaceOnUse" x1="184.7907" y1="254.0746" x2="142.7707" y2="219.8745" gradientTransform="matrix(1 0 0 -1 0 502)">
		<stop offset="0" style="stop-color:#D4A397"/>
		<stop offset="1" style="stop-color:#FFB3A6;stop-opacity:0"/>
	</linearGradient>
	<path style="fill:url(#SVGID_00000013903354676666517220000010662717875109869701_);" d="M159.7,253.3l-35,19.5&#10;&#9;&#9;c0,0,8.4,13.3,23.1,19.5l37.9-20.9"/>
	<path class="st8_designer-2-53" d="M206,227.9l21.1,10.1c2.4,1.2,3.4,4,2.3,6.5c-0.4,0.9-1.1,1.6-1.9,2.1l-49.9,29.2c-2.2,1.3-5.1,0.6-6.5-1.6&#10;&#9;&#9;l-12.1-18.9"/>
	<path class="st2_designer-2-53 targetColor" d="M91.4,179.1l168-96.8c3.6-2.1,8.3-0.8,10.4,2.8c0.7,1.1,1,2.4,1,3.8v100.7c0,2.3-1.2,4.3-3.1,5.5L88.6,298.4&#10;&#9;&#9;c-1.9,1.1-4.4,0.5-5.6-1.5c-0.4-0.6-0.6-1.3-0.5-2V194.6C82.5,188.2,85.9,182.3,91.4,179.1z" style="fill: rgb(104, 225, 253);"/>
	<path class="st3_designer-2-53" d="M259.4,89.9L96.5,183.6c-3.5,2-5.7,5.8-5.7,9.9V269c0,2.3,1.8,4.1,4.1,4.2c0.7,0,1.5-0.2,2.1-0.6l166.1-95.3&#10;&#9;&#9;c1.2-0.7,2-2.1,2-3.5V93.2c0-2.1-1.7-3.8-3.8-3.8C260.6,89.4,260,89.6,259.4,89.9z"/>
	<ellipse transform="matrix(0.1891 -0.982 0.982 0.1891 -68.7657 373.2804)" class="st8_designer-2-53" cx="191.6" cy="228.3" rx="4.1" ry="3.5"/>
	<polygon class="st12_designer-2-53" points="126.2,239.6 185.6,208 149.9,173.9 &#9;"/>
	<circle class="st10_designer-2-53" cx="231.9" cy="142.3" r="22.6"/>
	<path class="st8_designer-2-53" d="M113.8,195.1c-3.6-2.1-6.8,3.5-3.2,5.6c11.2,6.4,2.2,20.4-6.1,24.4c-3.7,1.8-0.5,7.3,3.2,5.6&#10;&#9;&#9;C120.6,224.5,129.1,203.9,113.8,195.1z"/>
	<path class="st8_designer-2-53" d="M216.5,179.5c-3.4-16-24.9-6.2-21.2,8.3c1.6,6.3,8.5,9.9,14.4,6.8C215,191.8,217.8,185.3,216.5,179.5z&#10;&#9;&#9; M210.3,183.5c-0.4,2.3-1.7,4.7-4,5.6c-4.9,1.9-4.8-4.4-3.6-7.4C205,176.1,211.4,176.9,210.3,183.5z"/>
</g>
<path id="pen_designer-2-53" class="st2_designer-2-53 targetColor" d="M206.6,384.8c0.3-1.7,1.4-3.1,2.9-3.8c3.1-1.8,6.2-3.6,9.3-5.4l14.4-8.3l17.2-10l18.3-10.6l17.7-10.2&#10;&#9;l15.4-8.9l11.4-6.5l6-3.5c0,0.1,0.2,0.1,0.3,0.1c2.3-0.6,4.6,0.8,5.2,3c0.2,0.7,0.2,1.5,0,2.2c-0.7,2.7-3,5.1-5.1,6.7&#10;&#9;c-7,5-14.2,9.6-21.8,13.7v-2.7c5.1-2.8,16-9,20.6-13.8l-2.2,1.2l-6,3.5l-9.1,5.3l-11.3,6.6l-12.8,7.5l-13.5,7.9l-13.3,7.8l-12.4,7.2&#10;&#9;l-10.7,6.2l-8.2,4.8c-2.5,1.5-5.2,3.5-8.1,4c-2.2,0.1-4.1-1.5-4.3-3.7C206.6,385,206.6,384.9,206.6,384.8z" style="fill: rgb(104, 225, 253);"/>
<g id="notes_designer-2-53">
	
		<linearGradient id="SVGID_00000016789319430641985330000014512504255120443059_-designer-2-53_designer-2-53" gradientUnits="userSpaceOnUse" x1="301.8084" y1="255.022" x2="275.0284" y2="233.222" gradientTransform="matrix(1 0 0 -1 0 502)">
		<stop offset="0" style="stop-color:#D4A397"/>
		<stop offset="1" style="stop-color:#FFB3A6;stop-opacity:0"/>
	</linearGradient>
	<path style="fill:url(#SVGID_00000016789319430641985330000014512504255120443059_);" d="M279.5,247.7l-19.2,11.4&#10;&#9;&#9;c0,0,12.6,12.1,27.3,18.3l17.9-11.7"/>
	<polyline class="st14_designer-2-53" points="277.7,239.5 277.7,248.5 305.4,265.7 338.8,245.4 338.8,237.7 &#9;"/>
	<polyline class="st15_designer-2-53" points="277.7,239.5 277.7,248.5 305.4,265.7 338.8,245.4 338.8,237.7 &#9;"/>
	<polygon class="st14_designer-2-53" points="338.8,237.7 310.5,220.8 277.7,239.5 306,256.7 &#9;"/>
</g>
</svg>