<svg version="1.1" id="Layer_1" xmlns="http://www.w3.org/2000/svg" xmlns:xlink="http://www.w3.org/1999/xlink" x="0px" y="0px" viewBox="0 0 500 500" style="width: 180px;" xml:space="preserve" data-imageid="order-confirmed-1-97" imageName="Order Confirmed 1" class="illustrations_image">
<style type="text/css">
	.st0_order-confirmed-1-97{fill:#DEDEDE;}
	.st1_order-confirmed-1-97{fill:#68E1FD;}
	.st2_order-confirmed-1-97{fill:url(#SVGID_1_);}
	.st3_order-confirmed-1-97{fill:#155A93;}
	.st4_order-confirmed-1-97{fill:#76CC23;}
	.st5_order-confirmed-1-97{fill:#FFFFFF;}
	.st6_order-confirmed-1-97{opacity:0.5;fill:#155A93;enable-background:new    ;}
	.st7_order-confirmed-1-97{opacity:0.2;fill:#155A93;enable-background:new    ;}
	.st8_order-confirmed-1-97{fill:#8D57C1;}
	.st9_order-confirmed-1-97{opacity:0.3;fill:#155A93;enable-background:new    ;}
	.st10_order-confirmed-1-97{opacity:0.7;fill:#155A93;enable-background:new    ;}
	.st11_order-confirmed-1-97{opacity:0.21;fill:url(#SVGID_00000128482451884301183380000013094453183084106379_);enable-background:new    ;}
	.st12_order-confirmed-1-97{fill:#D4A397;}
	.st13_order-confirmed-1-97{fill:#C24327;}
</style>
<path id="field_order-confirmed-1-97" class="st0_order-confirmed-1-97" d="M221.8,143.6l-208.1,121c-6.3,3.7-8.5,11.8-4.8,18.1c1.2,2,2.9,3.7,5,4.9l254.7,142.6&#10;&#9;c6.3,3.5,13.9,3.6,20.2,0.2l195.7-105.3c7.8-4.2,10.6-13.9,6.4-21.7c-1.4-2.5-3.4-4.6-5.9-6.1L221.8,143.6z"/>
<path id="pen_order-confirmed-1-97" class="st1_order-confirmed-1-97 targetColor" d="M271.8,416.2c0.2-1.4,1.1-2.6,2.4-3.1c2.5-1.5,5.1-2.9,7.6-4.4l11.8-6.8l14.1-8.2l15-8.7l14.5-8.4&#10;&#9;l12.6-7.3l9.3-5.4l4.9-2.8c0,0.1,0.2,0.1,0.3,0.1c1.9-0.5,3.8,0.6,4.3,2.5c0.2,0.6,0.2,1.2,0,1.8c-0.6,2.2-2.5,4.2-4.2,5.5&#10;&#9;c-5.7,4.1-11.7,7.8-17.9,11.2v-2.2c4.1-2.3,13.1-7.4,16.9-11.3l-1.8,1l-4.9,2.9l-7.4,4.3l-9.3,5.4l-10.5,6.1l-11,6.5l-10.9,6.4&#10;&#9;l-10.2,5.9l-8.8,5.1l-6.7,3.9c-2,1.2-4.3,2.8-6.7,3.3c-1.8,0.1-3.4-1.2-3.5-3C271.8,416.4,271.8,416.3,271.8,416.2z" style="fill: rgb(104, 225, 253);"/>
<g id="plant_order-confirmed-1-97">
	
		<linearGradient id="SVGID_1_-order-confirmed-1-97_order-confirmed-1-97" gradientUnits="userSpaceOnUse" x1="440.1273" y1="187.5424" x2="416.9273" y2="162.1024" gradientTransform="matrix(1 0 0 -1 0 502)">
		<stop offset="0" style="stop-color:#D4A397"/>
		<stop offset="1" style="stop-color:#FFFFFF"/>
	</linearGradient>
	<path class="st2_order-confirmed-1-97" d="M424.4,312.2l-23.1,13.7c0,0,7.2,12.6,24.8,20l26.9-14.5"/>
	<ellipse class="st1_order-confirmed-1-97 targetColor" cx="443.7" cy="317.4" rx="21.5" ry="15.1" style="fill: rgb(104, 225, 253);"/>
	<ellipse class="st3_order-confirmed-1-97" cx="443.7" cy="308.5" rx="16.1" ry="6.6"/>
	<path class="st4_order-confirmed-1-97" d="M443.1,297.5c0-3-0.1-5.9-0.3-8.9c-0.1-0.8-0.1-1.5-0.2-2.3c0-0.1-0.1-1.1-0.2-1.5s-0.2-1.6-0.2-1.5&#10;&#9;&#9;c-0.1-0.6-0.2-1.2-0.3-1.8c-1.8-10.1-5.7-19.6-11.5-28.1c-2.2,5.2-3.3,10.8-3.2,16.4c0,1.6,0.1,3.2,0.3,4.9c0,0.4,0,0.6,0.1,0.7&#10;&#9;&#9;s0-0.1,0.1,0.3c0.1,0.8,0.3,1.6,0.4,2.4c0.6,3,1.5,6,2.5,8.9c0.9,2.7,2.1,5.3,3.5,7.8c1.5,2.8,3,5.5,4.7,8.2c1.3,2.1,2.6,4,3.9,5.7&#10;&#9;&#9;C442.9,304.9,443.1,301.2,443.1,297.5z"/>
	<path class="st4_order-confirmed-1-97" d="M448.6,299.8c1.6-2.5,3.1-5,4.5-7.7c0.4-0.7,0.7-1.4,1.1-2l0.7-1.4c0.2-0.4,0.7-1.5,0.6-1.4&#10;&#9;&#9;c0.2-0.6,0.5-1.1,0.7-1.7c4-9.4,5.8-19.6,5.5-29.8c-4.6,3.2-8.6,7.3-11.6,12.1c-0.9,1.4-1.6,2.8-2.4,4.2c-0.2,0.4-0.3,0.5-0.3,0.6&#10;&#9;&#9;s0.1-0.1-0.1,0.3c-0.3,0.7-0.6,1.5-0.9,2.2c-1.1,2.9-2,5.9-2.7,8.9c-0.7,2.8-1.1,5.6-1.3,8.4c-0.3,3.1-0.4,6.3-0.4,9.5&#10;&#9;&#9;c0,2.5,0,4.7,0.2,6.9C444.5,305.9,446.6,302.9,448.6,299.8z"/>
	<path class="st4_order-confirmed-1-97" d="M448.5,307.2c1.7-0.8,3.3-1.7,4.9-2.7c0.4-0.2,0.8-0.5,1.2-0.8l0.8-0.5l0.8-0.6l0.9-0.7&#10;&#9;&#9;c5.2-3.8,9.5-8.7,12.6-14.3c-3.5,0.2-7,1.2-10.1,2.8c-0.9,0.5-1.8,1-2.7,1.5l-0.4,0.2c0,0,0.1,0-0.1,0.1c-0.4,0.3-0.8,0.6-1.2,0.9&#10;&#9;&#9;c-1.5,1.2-3,2.5-4.3,3.9c-1.2,1.3-2.4,2.7-3.4,4.1c-1.2,1.6-2.3,3.3-3.3,5c-0.8,1.3-1.5,2.6-2.1,3.8&#10;&#9;&#9;C444.3,309.1,446.4,308.2,448.5,307.2z"/>
</g>
<g id="monitor_order-confirmed-1-97">
	<path class="st3_order-confirmed-1-97" d="M244.2,239l-24.7,11.9c-2.8,1.4-4,4.8-2.6,7.6c0.5,1,1.3,1.8,2.2,2.4l58.5,34.1c2.6,1.5,6,0.7,7.6-1.8&#10;&#9;&#9;l14.2-22.1"/>
	<path class="st1_order-confirmed-1-97 targetColor" d="M378.5,181.8L181.6,68.4c-4.2-2.5-9.7-1-12.1,3.3c-0.8,1.4-1.2,2.9-1.2,4.4v118c0,2.6,1.4,5.1,3.7,6.4&#10;&#9;&#9;l209.9,121.2c2.3,1.3,5.2,0.5,6.5-1.8c0.4-0.7,0.6-1.5,0.6-2.4V200C389,192.5,385,185.6,378.5,181.8z" style="fill: rgb(104, 225, 253);"/>
	<path class="st5_order-confirmed-1-97" d="M181.6,77.3l190.9,109.8c4.2,2.4,6.7,6.8,6.7,11.6v88.5c0,2.7-2.1,4.8-4.8,4.8c-0.9,0-1.7-0.2-2.4-0.7&#10;&#9;&#9;L177.3,179.7c-1.5-0.9-2.4-2.4-2.4-4.1V81.2c0-2.5,2-4.5,4.5-4.5C180.2,76.7,181,76.9,181.6,77.3z"/>
	<ellipse transform="matrix(0.982 -0.1891 0.1891 0.982 -40.579 53.6852)" class="st3_order-confirmed-1-97" cx="261.1" cy="239.5" rx="4.1" ry="4.8"/>
	<path class="st4_order-confirmed-1-97" d="M317.9,194.1l37,21.6c0.7,0.4,1.1,1.2,1.1,2l0,0c0,1.3-1,2.3-2.2,2.3c-0.4,0-0.8-0.1-1.2-0.3l-37-21.5&#10;&#9;&#9;c-0.7-0.4-1.1-1.2-1.1-2v-0.1c0-1.3,1-2.3,2.2-2.3C317.2,193.8,317.6,193.9,317.9,194.1z"/>
	<path class="st4_order-confirmed-1-97" d="M317.9,205.8l37,21.6c0.7,0.4,1.1,1.2,1.1,2l0,0c0,1.3-1,2.3-2.3,2.3c-0.4,0-0.8-0.1-1.1-0.3l-37-21.5&#10;&#9;&#9;c-0.7-0.4-1.1-1.2-1.1-2v-0.1c0-1.3,1-2.3,2.2-2.3C317.2,205.5,317.6,205.6,317.9,205.8z"/>
	<path class="st4_order-confirmed-1-97" d="M317.9,217.5l37,21.6c0.7,0.4,1.1,1.2,1.1,2l0,0c0,1.3-1,2.3-2.2,2.3c-0.4,0-0.8-0.1-1.2-0.3l-37-21.5&#10;&#9;&#9;c-0.7-0.4-1.1-1.2-1.1-2v-0.1c0-1.3,1-2.3,2.2-2.3C317.1,217.2,317.5,217.3,317.9,217.5z"/>
	<path class="st4_order-confirmed-1-97" d="M317.9,229.2l37,21.6c0.7,0.4,1.1,1.2,1.1,2l0,0c0,1.3-1,2.3-2.2,2.3c-0.4,0-0.8-0.1-1.2-0.3l-37-21.5&#10;&#9;&#9;c-0.7-0.4-1.1-1.2-1.1-2v-0.1c0-1.2,1-2.3,2.2-2.3C317.1,228.8,317.5,229,317.9,229.2z"/>
	<ellipse class="st3_order-confirmed-1-97" cx="371.4" cy="193.2" rx="2.1" ry="2.3"/>
	<ellipse class="st6_order-confirmed-1-97" cx="364.8" cy="189.9" rx="2.1" ry="2.3"/>
	<ellipse class="st7_order-confirmed-1-97" cx="358.1" cy="186.6" rx="2.3" ry="2.1"/>
	<path class="st5_order-confirmed-1-97" d="M193.4,109.4v59.7l48.7,28c0.6,0.4,1.3,0.5,2.1,0.5v-58.7L193.4,109.4z"/>
	<path class="st4_order-confirmed-1-97" d="M243.9,198.1c-0.7,0-1.4-0.2-2-0.5L193,169.4v-60.9l51.8,30V198h-0.5L243.9,198.1z M193.9,168.8l48.4,27.8&#10;&#9;&#9;c0.4,0.2,0.9,0.4,1.3,0.4v-57.9L194,110.2L193.9,168.8z"/>
	<ellipse transform="matrix(0.982 -0.1891 0.1891 0.982 -31.24 56.8148)" class="st4_order-confirmed-1-97" cx="282.1" cy="192.1" rx="16.8" ry="27.9"/>
	<polygon class="st5_order-confirmed-1-97" points="270.6,192.5 274,187.9 279.3,196.5 290.2,181.6 292.7,187.6 278.8,205.3 &#9;"/>
	<path class="st8_order-confirmed-1-97" d="M227.6,143.2c0.4,0.2,6.2,16.9,6.5,17.8l-6.4,1.7l-2.4-9.3l-0.4,21.6l-14.8-8.2l0.3-20.5l-2,5.6l-6.4-5.9&#10;&#9;&#9;l4.4-10.1l1.5-3.6l6.4,3.6c0,0.2,0.4,4.6,3.6,6.3s3.1-2.4,3.1-2.6L227.6,143.2z"/>
</g>
<g id="shopping_bag_order-confirmed-1-97">
	<path class="st4_order-confirmed-1-97" d="M81.6,150.5c-17.9,1.2-16.9,30.1-18.2,42.1c-0.3,3,4.3,4,4.6,1c1-10,0.3-23.5,5.9-32.3&#10;&#9;&#9;c1.7-2.7,3.8-5.4,7.3-5.6c2.2-0.1,4.3,0.8,5.8,2.3c1.6,1.4,2.4,7,2.7,8.7c0.9,6.2,1,12.5,0.3,18.7c-0.3,3,4.3,4,4.7,1&#10;&#9;&#9;C95.7,176.9,97.5,149.4,81.6,150.5z"/>
	<polyline class="st8_order-confirmed-1-97" points="108.3,169.9 113.7,178.9 124.4,181.1 116.4,208.9 93.5,194.1 &#9;"/>
	<polyline class="st9_order-confirmed-1-97" points="108.3,169.9 113.7,178.9 124.4,181.1 116.4,208.9 93.5,194.1 &#9;"/>
	<polygon class="st8_order-confirmed-1-97" points="53.2,200.4 108.3,169.9 106.5,215.1 64.4,219.2 &#9;"/>
	<polygon class="st10_order-confirmed-1-97" points="53.2,200.4 108.3,169.9 106.5,215.1 64.4,219.2 &#9;"/>
	<polygon class="st8_order-confirmed-1-97" points="72.9,207.1 81.4,292.7 132.9,261.8 124.4,181.1 &#9;"/>
	<polygon class="st8_order-confirmed-1-97" points="72.9,207.1 67.1,200.4 53.2,200.4 47.4,275.2 62.3,282.1 81.4,292.7 &#9;"/>
	<polygon class="st9_order-confirmed-1-97" points="72.9,207.1 67.1,200.4 53.2,200.4 47.4,275.2 62.3,282.1 81.4,292.7 &#9;"/>
	<path class="st4_order-confirmed-1-97" d="M104.6,164.8c-17.9,0.2-18.7,29.1-20.6,41c-0.5,3,4.1,4.3,4.6,1.3c1.6-9.9,1.8-23.5,7.8-31.9&#10;&#9;&#9;c2.5-3.5,6.8-6.4,11.1-4.1c3.8,2,3.9,6.6,4.3,10.4c0.6,6.2,0.3,12.5-0.8,18.7c-0.5,3,4.1,4.3,4.6,1.3&#10;&#9;&#9;C117.1,192,120.5,164.7,104.6,164.8z"/>
</g>
<g id="person_order-confirmed-1-97">
	
		<linearGradient id="SVGID_00000156589586008859499290000009371005024416703138_-order-confirmed-1-97_order-confirmed-1-97" gradientUnits="userSpaceOnUse" x1="596.5931" y1="133.0841" x2="567.4832" y2="117.2941" gradientTransform="matrix(-1 0 0 -1 839.61 502)">
		<stop offset="0" style="stop-color:#7F3500"/>
		<stop offset="4.000000e-02" style="stop-color:#843D0A"/>
		<stop offset="1" style="stop-color:#FFFFFF"/>
	</linearGradient>
	<path style="opacity:0.21;fill:url(#SVGID_00000156589586008859499290000009371005024416703138_);enable-background:new    ;" d="&#10;&#9;&#9;M183.2,354.3l18.3-11.3l85.9,29.1c0,0-23.9,13.2-37.5,21.4C241.1,388.6,201.5,362.5,183.2,354.3z"/>
	<path class="st12_order-confirmed-1-97" d="M224.4,201.8c0,0,4.3-3.6,5-5.6s1.5-4.8,2.7-4.4s-0.2,4.4-0.2,4.4s5.4-4.1,6.4-3.3s-3.3,3.9-3.3,3.9&#10;&#9;&#9;s6.3-3.8,7.1-2.3s-5.7,4.4-5.7,4.4s5.7-2.8,5.5-1c-0.1,1.1-6,3.9-6,3.9s4.6,0.5,3.2,1.4s-5.2,0.8-5.2,0.8s-6.4,4.3-11.8,4.8"/>
	<path class="st12_order-confirmed-1-97" d="M243.9,216.8c1.2-0.1,8.6-3.6,9.4-4.8s3-8.4,4.5-7.9s-1.7,7.1-0.8,7.3s11,0,11.4,1.2s-5,1.5-5,1.5&#10;&#9;&#9;s6.8-0.5,5.9,1.3s-7.7,1.4-7.7,1.4s6.9,1.4,5.9,2.7s-7.6-0.8-7.6-0.8s4.9,3.4,3.2,4.1s-6.8-2.8-7.3-2.8s-11.9,5.2-11.9,5.2"/>
	<path class="st13_order-confirmed-1-97" d="M217.9,352.1c0.1,0.6,0.6,1.1,1.2,1.1c1.1,0.1,11.6-4.4,14.2,1.7c0.3,0.8,0,1.7-0.7,2.1&#10;&#9;&#9;c-5.2,3.4-11.2,5.5-17.3,6.3c-2.1,0.4-4.3,0.1-6.2-0.8l0.5-11.6L217.9,352.1z"/>
	<path class="st13_order-confirmed-1-97" d="M192.4,346.7c0,0,9.8-6.4,11.6-2.4c1.3,3.1-10.4,12.3-14.8,13s-4.9-3.8-4.9-3.8l0.1-7.5"/>
	<path class="st4_order-confirmed-1-97" d="M211.7,253.2c0,0,9.9,21.3,9.7,98c0,0-2,5.3-16.2,1.6l-5.8-68.5l-2.5,63.2c0,0-6.7,5-17.1-1&#10;&#9;&#9;c0,0,2.3-84.6,8-99.8"/>
	<path class="st13_order-confirmed-1-97" d="M190,208.1c0,0,20.2-3,28.2-6.6l8-3.7c0,0,4.5,5.2,3.6,10.7S204.9,222,193.5,222"/>
	<path class="st6_order-confirmed-1-97" d="M190,208.1c0,0,20.2-3,28.2-6.6l8-3.7c0,0,4.5,5.2,3.6,10.7S204.9,222,193.5,222"/>
	<path class="st13_order-confirmed-1-97" d="M187.3,249.3c-2.5-10.4-7.6-37.4-2.1-41.5c4.8-3.6,15.8,0.3,24.3,6c6.9,4.7,4.1,31.9,2.9,41.4&#10;&#9;&#9;C203.2,256.3,194.6,254.7,187.3,249.3z"/>
	<path class="st13_order-confirmed-1-97" d="M209.5,213.8c0,0,20.2,2.6,28.9,1.2l8.7-1.4c0,0,3,6.2,0.6,11.3s-27.7,6.2-38.7,3.2"/>
	<path class="st12_order-confirmed-1-97" d="M208.1,192.5c0,0,0.2,13.9-3.6,14.2s-6.2-1.4-7.6-3.9"/>
	<path class="st12_order-confirmed-1-97" d="M202.4,205v6.6c0,0-3.5,1.4-8.5-1.9v-5.4"/>
	<path class="st13_order-confirmed-1-97" d="M207.4,195.1c0,0,4.7-4.9,1.6-9.1s-6.5-2-6.5-2s-0.7-1.8-4.4-2.2s-5.1,3.3-6.5,4.2s-3.8,3.6-4,5.8&#10;&#9;&#9;s3.1,14.5,6.9,15.4S203.2,209.6,207.4,195.1z"/>
</g>
</svg>