<svg version="1.1" id="Layer_1" xmlns="http://www.w3.org/2000/svg" xmlns:xlink="http://www.w3.org/1999/xlink" x="0px" y="0px" viewBox="0 0 500 500" style="width: 180px;" xml:space="preserve" data-imageid="podcaster-87" imageName="Podcaster" class="illustrations_image">
<style type="text/css">
	.st0_podcaster-87{fill:#BCBCF7;}
	.st1_podcaster-87{fill:url(#Shadow_1_00000147181966131509225890000017639205100129048718_);}
	.st2_podcaster-87{fill:#AA3679;}
	.st3_podcaster-87{fill:#FFDDDC;}
	.st4_podcaster-87{fill:#FFFFFF;}
	.st5_podcaster-87{fill:#FF681D;}
	.st6_podcaster-87{fill:#68E1FD;}
	.st7_podcaster-87{opacity:0.1;enable-background:new    ;}
	.st8_podcaster-87{fill:#6D0D4D;}
	.st9_podcaster-87{opacity:0.57;fill:url(#SVGID_1_);enable-background:new    ;}
	.st10_podcaster-87{opacity:0.55;fill:url(#SVGID_00000034799739892498998410000001436491979907142029_);enable-background:new    ;}
	.st11_podcaster-87{fill:#FFE4D7;}
</style>
<path id="Base_podcaster-87" class="st0_podcaster-87" d="M476.8,304.8L298,408c-9.1,5.3-20.3,5.3-29.4,0L21.5,265.3c-5.7-3.3-7.6-10.6-4.3-16.3&#10;&#9;c1-1.8,2.5-3.3,4.3-4.3l177.4-102.9c8.6-5,19.1-5,27.7,0l250.3,144.4c5.1,3,6.9,9.5,3.9,14.7C479.8,302.5,478.4,303.8,476.8,304.8z"/>
<linearGradient id="Shadow_1_00000011720034116076971960000001791075893654017463_-podcaster-87_podcaster-87" gradientUnits="userSpaceOnUse" x1="360.5816" y1="-1394.5814" x2="282.4216" y2="-1486.0714" gradientTransform="matrix(1 0 0 1 0 1745.78)">
	<stop offset="0" style="stop-color:#000000;stop-opacity:0"/>
	<stop offset="1" style="stop-color:#662D91"/>
</linearGradient>
<polygon id="Shadow_1_podcaster-87" style="fill:url(#Shadow_1_00000011720034116076971960000001791075893654017463_);" points="374.1,292.3 &#10;&#9;424.8,323.5 324.8,381.9 273.1,351.7 "/>
<g id="Smartphone_podcaster-87">
	<path class="st2_podcaster-87" d="M382,290.7l-168.1-96.5c-3.7-2.1-8.2-2.1-11.8,0l-89.8,52.6c-3.3,1.9-4.4,6.2-2.5,9.5c0.6,1,1.5,1.9,2.5,2.5&#10;&#9;&#9;L278.7,355c4.9,2.8,10.9,2.8,15.7-0.1l87.7-52.2c3.3-1.9,4.4-6.2,2.5-9.5C384,292.1,383.1,291.2,382,290.7L382,290.7z"/>
	<path class="st3_podcaster-87" d="M382,283.1l-168.1-96.5c-3.7-2.1-8.2-2.1-11.8,0l-89.8,52.6c-3.3,1.9-4.4,6.2-2.5,9.5c0.6,1,1.5,1.9,2.5,2.5&#10;&#9;&#9;l166.4,96.3c4.9,2.8,10.9,2.8,15.7-0.1l87.7-52.2c3.3-1.9,4.4-6.2,2.5-9.5C384,284.5,383.1,283.7,382,283.1L382,283.1z"/>
	<path class="st4_podcaster-87" d="M223.1,200.8c-0.9,0.3-85.9,49.9-85.9,49.9l141.9,83.1l85.7-49.5L223.1,200.8z"/>
	<path class="st5_podcaster-87" d="M146.2,231.3c-1-0.6-1.4-1.9-0.8-3c0,0,0,0,0,0c0-0.1,0.1-0.1,0.1-0.2c1.2-1.3,2.6-2.3,4.1-3.1&#10;&#9;&#9;c1.4-0.9,3-1.7,4.4-2.6l11.4-6.7l9.4-5.5c1.2-0.8,2.8-0.9,4.2-0.5c1,0.3,1.8,1,2.4,1.9c0.6,0.9,0.3,2.2-0.7,2.7c0,0,0,0,0,0&#10;&#9;&#9;l-0.2,0.1l-17.2,10.1l-7.4,4.3l-4.3,2.5c-1.3,0.8-2.9,1-4.4,0.4C146.9,231.7,146.5,231.5,146.2,231.3z"/>
	<ellipse class="st5_podcaster-87" cx="188.9" cy="205.5" rx="3" ry="2.5"/>
</g>
<g id="Bubble_podcaster-87">
	<path class="st6_podcaster-87 targetColor" d="M283.3,115.5h0.9c-1.4-0.8-3-1.4-4.6-1.6h-1.5c-1.5,0-3,0.4-4.2,1.2l0,0c-3.7,1.9-6.9,6.1-8.4,11.5&#10;&#9;&#9;c-2.3,8.5,0.8,16.7,6.8,18.3c1.7,0.4,3.5,0.3,5.2-0.3c0.3,1.8,0.1,3.7-0.6,5.4l2,0.8l2.4-4.6l-1-0.7c0.6-1.1,1.1-2.3,1.4-3.5&#10;&#9;&#9;c2.7-2.6,4.7-5.9,5.6-9.5C289.2,125.4,287.4,118.6,283.3,115.5z" style="fill: rgb(104, 225, 253);"/>
	<path class="st7_podcaster-87" d="M283.3,115.5h0.9c-1.4-0.8-3-1.4-4.6-1.6h-1.5c-1.5,0-3,0.4-4.2,1.2l0,0c-3.7,1.9-6.9,6.1-8.4,11.5&#10;&#9;&#9;c-2.3,8.5,0.8,16.7,6.8,18.3c1.7,0.4,3.5,0.3,5.2-0.3c0.3,1.8,0.1,3.7-0.6,5.4l2,0.8l2.4-4.6l-1-0.7c0.6-1.1,1.1-2.3,1.4-3.5&#10;&#9;&#9;c2.7-2.6,4.7-5.9,5.6-9.5C289.2,125.4,287.4,118.6,283.3,115.5z"/>
	<path class="st6_podcaster-87 targetColor" d="M282.5,114.9c-6-1.6-12.8,3.9-15,12.4s0.8,16.6,6.8,18.3c1.7,0.4,3.5,0.3,5.2-0.3c0.3,1.8,0.1,3.7-0.6,5.4&#10;&#9;&#9;c2.3-2.2,4-4.9,4.8-8c2.7-2.6,4.7-5.9,5.6-9.5C291.6,124.7,288.6,116.5,282.5,114.9z" style="fill: rgb(104, 225, 253);"/>
	<path class="st4_podcaster-87" d="M285.7,124.3c-0.5-2-2.1-2.8-3.7-1.8c-2,1.2-3.1,3.8-3.9,6.5c-0.5-2.2-1.5-4-3.4-3.6c-1.6,0.4-3.3,2.3-4,4.6&#10;&#9;&#9;c-1.4,3.4,0.2,7.2,3.6,8.6c0,0,0,0,0,0l0.2,0.1c1.5,0.7,3.3,0.6,4.7-0.4c1.8-1.5,3.3-3.2,4.5-5.2&#10;&#9;&#9;C285.4,130.4,286.4,127,285.7,124.3z"/>
</g>
<g id="Play_and_Soundwave_podcaster-87">
	<path class="st8_podcaster-87" d="M183.8,169.6l1.5-25.8l-3.2-1.6l-4.3,2.6v26l3,0.9C181.6,170.8,182.7,170.1,183.8,169.6z"/>
	<path class="st8_podcaster-87" d="M131.3,198.3c0.1-0.2,0.3-0.4,0.5-0.4c0.1-0.3,0.2-0.7,0.2-1c0-0.2,0.1-0.3,0.3-0.4l2.8-49l-3-1.4l-4.4,2.7&#10;&#9;&#9;v49.5c1.1,0.5,2,0.9,3,1.4C130.9,199.2,131.1,198.7,131.3,198.3z"/>
	<path class="st8_podcaster-87" d="M144.4,192.4c0.1-0.1,0.2-0.2,0.3-0.2l3.3-57.7l-2.9-1.5l-4.5,2.7v56.8c1.3,0.5,1.9,0.6,3,1.1&#10;&#9;&#9;C143.8,193.2,144.3,192.7,144.4,192.4z"/>
	<path class="st8_podcaster-87" d="M155.3,184.5c0.2-0.6,0.3-0.5,0.8-1c0.1-0.1,0.3-0.2,0.5-0.1l2.5-43l-3-1.5l-4.5,2.6v43c1.2,0.2,1.9,0.5,3,0.7&#10;&#9;&#9;L155.3,184.5z"/>
	<path class="st8_podcaster-87" d="M170.2,177.1l1.9-33.5l-3.2-1.5l-4.3,2.6v33.4c1.1,0.4,1.9,0.5,3,0.8C168.5,178.2,169.3,177.6,170.2,177.1z"/>
	<path class="st8_podcaster-87" d="M120.9,203.4c0.1-0.3,0.4-0.5,0.8-0.4c0,0,0,0,0,0h0.1l2.7-46.5l-2.9-1.5l-4.5,2.8v45.6c1.2,0.5,1.8,0.8,3,1.3&#10;&#9;&#9;l0.6-0.5C120.6,203.9,120.7,203.7,120.9,203.4z"/>
	<polyline class="st8_podcaster-87" points="110.2,137 107,135.4 102.7,138 102.7,211.9 105.8,213.4 &#9;"/>
	
		<ellipse transform="matrix(0.3649 -0.9311 0.9311 0.3649 -148.388 204.3486)" class="st2_podcaster-87" cx="75.6" cy="210.9" rx="19.2" ry="15.9"/>
	
		<ellipse transform="matrix(0.3649 -0.9311 0.9311 0.3649 -147.5231 208.1313)" class="st5_podcaster-87" cx="78.8" cy="212.2" rx="19.2" ry="15.9"/>
	<path class="st4_podcaster-87" d="M73.3,204.3v15.5c0,0.6,0.4,1,1,1c0.2,0,0.4-0.1,0.6-0.2l12.4-9.9c0.4-0.3,0.5-1,0.2-1.4c0,0,0,0,0,0&#10;&#9;&#9;c-0.1-0.1-0.2-0.2-0.4-0.3l-12.4-5.6c-0.5-0.2-1.1,0-1.3,0.5c0,0,0,0,0,0.1C73.3,204,73.3,204.1,73.3,204.3z"/>
	<path class="st2_podcaster-87" d="M105.8,140.3v73.2l4.4-2.9V137L105.8,140.3z"/>
	<path class="st2_podcaster-87" d="M120,159.1v45.6l4.4-2.8v-45.4C123,157.4,121.5,158.2,120,159.1z"/>
	<path class="st2_podcaster-87" d="M130.8,150.4v49.3l4.4-2.8v-49.4C133.8,148.4,132.3,149.4,130.8,150.4z"/>
	<path class="st2_podcaster-87" d="M143.7,137.3v56.2l4.4-2.8v-56.3C146.6,135.4,145.2,136.4,143.7,137.3z"/>
	<path class="st2_podcaster-87" d="M154.6,142.8v42.4l4.4-2.8v-42C157.6,141.2,156.1,142,154.6,142.8z"/>
	<path class="st2_podcaster-87" d="M167.7,146.3v32.6l4.4-2.8v-32.5C170.7,144.5,169.2,145.4,167.7,146.3z"/>
	<path class="st2_podcaster-87" d="M183.8,144.6c-1,0.7-2,1.3-3,1.9v25.1l4.4-2.8v-25C184.8,144.1,184.3,144.3,183.8,144.6z"/>
</g>
<g id="Shadow_podcaster-87">
	
		<linearGradient id="SVGID_1_-podcaster-87_podcaster-87" gradientUnits="userSpaceOnUse" x1="248.8474" y1="-1481.9778" x2="183.4774" y2="-1558.5078" gradientTransform="matrix(1 0 0 1 0 1745.78)">
		<stop offset="0" style="stop-color:#000000;stop-opacity:0"/>
		<stop offset="1" style="stop-color:#662D91"/>
	</linearGradient>
	<polygon class="st9_podcaster-87" points="232.5,226 284.3,256.2 245.6,278.8 193.9,248.6 &#9;"/>
	
		<linearGradient id="SVGID_00000047032980165976047890000015060859461016394686_-podcaster-87_podcaster-87" gradientUnits="userSpaceOnUse" x1="325.1774" y1="-1425.6079" x2="260.1274" y2="-1501.7478" gradientTransform="matrix(1 0 0 1 0 1745.78)">
		<stop offset="0" style="stop-color:#000000;stop-opacity:0"/>
		<stop offset="1" style="stop-color:#662D91"/>
	</linearGradient>
	
		<polygon style="opacity:0.55;fill:url(#SVGID_00000047032980165976047890000015060859461016394686_);enable-background:new    ;" points="&#10;&#9;&#9;304.8,287.3 357.1,315.5 325.6,332.3 273.9,302.2 &#9;"/>
</g>
<g id="Microphone_podcaster-87">
	<path class="st6_podcaster-87 targetColor" d="M245.3,240.1c0-0.6-0.1-1.1-0.2-1.6c-0.9-4.5-5.4-15-26.2-15.8c-24.4-0.9-28.9,11.5-29.7,16.1&#10;&#9;&#9;c-0.1,0.4-0.1,0.9-0.1,1.3v0.4c0,8.1,12.6,14.7,28.2,14.7s28.2-6.6,28.2-14.7C245.3,240.4,245.3,240.2,245.3,240.1z" style="fill: rgb(104, 225, 253);"/>
	<path class="st7_podcaster-87" d="M203.3,242.3c-4.7-7.9,0.5-15.4,7.6-19.4c-17.5,1.7-21,11.9-21.8,15.9c-0.1,0.4-0.1,0.9-0.1,1.3v0.4&#10;&#9;&#9;c0,8.1,12.6,14.7,28.2,14.7c2.1,0,4.1-0.1,6.1-0.4C215.2,253.5,207.7,249.7,203.3,242.3z"/>
	<path class="st8_podcaster-87" d="M216.9,234.5c1.7,0.4,3.5-0.2,4.6-1.6l4.7-25.3l-7.9-1.5l-4.9,26.3C214.2,233.4,215.5,234.2,216.9,234.5z"/>
	<path class="st2_podcaster-87" d="M208,167.6c-0.6,4-1.2,8-1.8,11.9c-0.4,2.9-0.9,5.9-1.4,8.9c-0.5,3-0.9,6.1-1,9.2c0.2,9,8.6,14.6,16.9,15.9&#10;&#9;&#9;c0,0,16.1,2.1,21-11.6s5.8-31.9,5.8-31.9"/>
	<ellipse class="st3_podcaster-87" cx="227.6" cy="169.9" rx="19.9" ry="13"/>
	<path class="st8_podcaster-87" d="M209.6,179.2c0,0,1.4-2.9,5.2-1.5s2.9,8.3,2.9,8.3s-2.3,11.3-2.5,14s-2.3,11.2,2.5,12.8&#10;&#9;&#9;c-1.2,0.7-2.6,0.8-3.9,0.4c-2.5-0.7-2.3-13.2-2.3-13.2"/>
	<path class="st8_podcaster-87" d="M206.9,188.3c0.2-1.1,0.4-2.2,0.6-3.3c0.5-2.9,1.8-8.5,5.9-6.7c2.5,1.1,2.9,4.9,2.9,4.9c0.3,2.7-1,5.9-1.5,8.5&#10;&#9;&#9;c-0.8,4.3-1.3,8.6-1.7,12.9c-0.2,3.2-0.5,6.9,2.6,8.9c-0.7-0.2-1.4-0.4-2.1-0.4c-0.8-0.2-1.7-0.4-2.5-0.7c-5-1.7-6.6-6.2-6.4-11.1&#10;&#9;&#9;C205.3,196.9,205.9,192.6,206.9,188.3z"/>
	<circle class="st2_podcaster-87" cx="212.2" cy="183.8" r="2"/>
	<path class="st6_podcaster-87 targetColor" d="M247.6,149.6c0,0,3.4-17.3-12.7-19.6s-18.2,12.6-18.2,12.6s-2.8,16.7-4.1,24.6l0,0c-0.1,0.4-0.1,0.9-0.1,1.3&#10;&#9;&#9;c0,5.7,7.1,10.4,15.9,10.4c8,0,14.6-3.8,15.7-8.8l0,0v-0.7L247.6,149.6z" style="fill: rgb(104, 225, 253);"/>
</g>
<g id="Character_podcaster-87">
	<polyline class="st8_podcaster-87" points="298.1,295.6 303.6,293 301.4,287.3 297.1,289 &#9;"/>
	<path class="st5_podcaster-87" d="M305.1,280.6H299c-0.1,2.5-0.7,5.5-2.8,6.5c-0.8,0.5-4.1,1.5-5.2,1.1s-4.4-1.2-4.8-0.9s-2,1.2,1.2,4&#10;&#9;&#9;s9.9,4.7,10.8,4.4s-1.1-5.9,1.4-5c2.8,0.9,1.2,7.1,1.6,7.5c0.9,0.5,1.8,0.9,2.8,1.1c0.7-0.4,1.4-0.8,2-1.2&#10;&#9;&#9;C306,292.2,305.6,286.4,305.1,280.6z"/>
	<polyline class="st8_podcaster-87" points="284,305.9 289.5,303.3 287.3,297.6 283,299.3 &#9;"/>
	<path class="st5_podcaster-87" d="M291.9,289l-6.9,1.8c-0.2,3.9-1.5,6.6-5.6,7.4c-1.7,0.3-3-0.3-4.6-0.6c-0.9-0.2-1.8,0-2.5,0.7&#10;&#9;&#9;c-0.9,1.1,0,2.3,1,3.1c3.1,2.8,9.9,4.7,10.8,4.4s-1.1-5.9,1.4-5c2.8,0.9,1.2,7,1.6,7.5c0.9,0.5,1.8,0.9,2.8,1.1&#10;&#9;&#9;c0.7-0.4,1.4-0.8,2-1.2C291.9,302.5,292.3,294.9,291.9,289z"/>
	<path class="st11_podcaster-87" d="M275.1,206.6c-4.8-0.5-9.5-1.5-14.1-3l-0.1-0.1c-1.1-0.8-2.1-1.7-3.3-2.5c-0.6-0.3-1.3-0.3-1.9,0&#10;&#9;&#9;c-0.6,0.3-0.4,1.1-0.3,1.6c0.3,0.8,0.9,1.4,1.6,1.8l0,0c-2.7-0.3-5.2-1.4-8-0.9c-0.9,0.2-0.7,1.3,0,1.6s3.6,0.8,4.3,1.1&#10;&#9;&#9;c-1.1,0-4.3-0.4-5.4-0.3c-0.5,0-0.8,0.4-0.8,0.9c0,0.3,0.2,0.7,0.6,0.8c1.9,0.4,3.9,0.7,5.9,0.8c-1.6,0.3-3.2,0.8-4.8,1.3&#10;&#9;&#9;c-0.8,0.4-0.4,1.5,0.4,1.5c1.9,0,3.8-0.1,5.7-0.4c-0.4,0.2-2,0.5-2.4,0.7c-0.4,0.2-0.5,0.8-0.3,1.1c0.1,0.2,0.3,0.3,0.5,0.4&#10;&#9;&#9;c2,0.4,3.9-0.4,5.9-0.6c1-0.1,1.9-0.2,2.9-0.2c3.5,0.6,7.1,1.1,10.6,1.4c0.8,0.1,1-0.8,0.6-1.3c0-0.1-0.1-0.3-0.2-0.3l-0.5-0.1&#10;&#9;&#9;v-0.1c0-0.1,0-0.2,0-0.2l1.6,0.3c0.4,0.1,0.9-0.2,1-0.6c0.1-0.4-0.1-0.9-0.6-1c-0.4-0.1-0.7-0.2-1.1-0.4c0-0.1,0-0.1,0-0.2h0.2&#10;&#9;&#9;c0.2,0.1,0.3,0,0.4-0.2c0.1-0.2,0-0.3-0.2-0.4c0,0,0,0,0,0l0,0l-1.1-0.4c0.1-0.1,0.1-0.2,0.2-0.2c0.7,0.2,1.4,0.5,2.2,0.7&#10;&#9;&#9;c0.4,0.1,0.5-0.4,0.1-0.6l-1.1-0.4l0,0c0.4,0.1,0.5-0.5,0.1-0.6c-0.8-0.3-1.6-0.5-2.4-0.8c1.3,0.2,2.6,0.4,3.9,0.5&#10;&#9;&#9;C275.5,207.3,275.5,206.7,275.1,206.6z"/>
	<path class="st6_podcaster-87 targetColor" d="M300.2,207c0,0,7.2,7.7,6,32c-1,19.1,2.7,38.3,2.2,39.1s-4.3,10.2-14.2,7.7l-3.1-73.3" style="fill: rgb(104, 225, 253);"/>
	<path class="st6_podcaster-87 targetColor" d="M281.1,216.6c-0.4,2.6-4.7,16.9-5,49.5c-0.1,9.6,2.2,27.2,2.2,27.2s8.5,4.6,16.8,0s5-11,5-11l-2-26.4&#10;&#9;&#9;l-1.8-44.4" style="fill: rgb(104, 225, 253);"/>
	<path class="st2_podcaster-87" d="M287.9,217.3c-5.6,1.1-11.5,0.9-17-0.6c-1.4-0.4-6.6-1.4-7.5-2.7c-1.3-1.9,1.1-10,1.1-10c1-0.4,13,1.5,13.5,0&#10;&#9;&#9;s0.1-7.8,0.1-11.8s9.3-10,9.8-10.3c0,0,6.9-5.9,11-5.1s3.5,22.3,2.2,29.3C299.8,212.6,294.2,216,287.9,217.3z"/>
	<path class="st11_podcaster-87" d="M280.8,165.5c0,0-0.7,12.4,1.4,13.7s6.2-0.8,7.1-2.8s0.3-2.5-1.8-2.9s-0.6-0.2-1.9-0.9&#10;&#9;&#9;C282.9,171.2,287.9,164.8,280.8,165.5z"/>
	<path class="st5_podcaster-87" d="M290.1,179.3c2.2-5.3,3.6-10.8,4.4-16.5c-0.5-0.5-1.1-0.9-1.7-1.2c-3-2.1-6.9-2.4-10.2-0.9&#10;&#9;&#9;c-3,1.1-4.5,4.4-3.3,7.4c0,0,0,0,0,0c0.2,0.6,0.6,1.2,1,1.6c1.8,2.2,3.2,4.7,4.2,7.4c0.2,0.9,0.6,1.7,1.3,2.3l0,0&#10;&#9;&#9;c0.4,0.2,0.8,0.4,1.2,0.4C288,180.1,289.1,179.9,290.1,179.3z"/>
	<path class="st5_podcaster-87" d="M284.4,177.1c0.3,3.9-0.3,7.8-1.8,11.4c-1.8,4,2.8,4.4,3.2,6.2s-5,5.4,2,8c3.8,1.4,7.9-0.4,11.1-2.4&#10;&#9;&#9;c3.5-2.2,7.2-4.8,7.5-9.3c0.2-3.2-1.3-6.1-2.7-8.8c-1.4-3-2.5-6.1-3.3-9.3c-0.9-4-2.9-7.8-5.6-10.9c-2.2-2.4-5.7-2.8-8.7-2.3"/>
	<ellipse class="st2_podcaster-87" cx="283.2" cy="174.4" rx="4.1" ry="4.5"/>
	<path class="st8_podcaster-87" d="M283.3,169.9c-0.7,0-1.5,0.2-2.1,0.6c2,0.7,3.5,2.5,3.6,4.7c0.1,1.3-0.4,2.5-1.3,3.3c-0.2,0.1-0.3,0.3-0.5,0.4&#10;&#9;&#9;h0.2c2.5-0.3,4.3-2.6,4-5.1C287,171.7,285.4,170,283.3,169.9L283.3,169.9z"/>
	<path class="st8_podcaster-87" d="M285.5,162c0.2-0.4,0.4-0.8,0.7-1.2c1-1.3,2.8-1.7,4.2-1h0.1c-1.3-1.8-4.3-1.7-6.1-0.9&#10;&#9;&#9;c-2.1,1.1-3.4,3.2-3.7,5.5c-0.2,1.4-0.2,2.8,0,4.2c0,0.1,0.2,1.8,0.4,1.8l3.5,0.7c-0.6-2.2-0.6-4.5,0-6.6&#10;&#9;&#9;C284.9,163.6,285.2,162.8,285.5,162z"/>
</g>
</svg>