<svg id="_0287_startup_1" xmlns="http://www.w3.org/2000/svg" viewBox="0 0 500 500" data-imageid="startup-1-60" imageName="Startup 1" class="illustrations_image" style="width: 180px;"><defs><style>.cls-1_startup-1-60{fill:#f4a28c;}.cls-2_startup-1-60,.cls-3_startup-1-60{fill:#a5a5a5;}.cls-3_startup-1-60{opacity:.19;}.cls-4_startup-1-60{opacity:.03;}.cls-4_startup-1-60,.cls-5_startup-1-60{fill:#000001;}.cls-6_startup-1-60{fill:#e6e6e6;}.cls-7_startup-1-60{fill:#ce8172;opacity:.31;}.cls-8_startup-1-60{opacity:.33;}.cls-8_startup-1-60,.cls-9_startup-1-60{fill:#fff;}.cls-10_startup-1-60{fill:#24285b;}.cls-5_startup-1-60{opacity:.08;}.cls-9_startup-1-60{opacity:.36;}.cls-11_startup-1-60{fill:#ffd200;}.cls-12_startup-1-60{fill:#68e1fd;}</style></defs><path class="cls-4_startup-1-60" d="m70.92,331.93S-.31,220.16,79.8,117.28c80.11-102.88,271.18-86.46,339,4.29,67.82,90.74,43.42,217.55-51.19,228.76-94.61,11.21-296.69-18.39-296.69-18.39Z"/><g id="rocket_startup-1-60"><path class="cls-10_startup-1-60" d="m223.73,288.87s-34.76-10.69-41.9,12.24c-7.15,22.92,27.69,19.85,27.69,19.85l14.21-32.09Z"/><path class="cls-12_startup-1-60 targetColor" d="m149.97,154.55l-29.73,91.99c-2.08,6.44-9.62,9.27-15.42,5.79l-49.21-29.51-8.93,16.08s58.21,56.5,81.5,49.98c23.29-6.52,53.66-63.68,53.66-63.68l-31.86-70.65Z" style="fill: rgb(104, 225, 253);"/><path class="cls-5_startup-1-60" d="m149.97,154.55l-29.73,91.99c-2.08,6.44-9.62,9.27-15.42,5.79l-49.21-29.51-8.93,16.08s58.21,56.5,81.5,49.98c23.29-6.52,53.66-63.68,53.66-63.68l-31.86-70.65Z"/><polygon class="cls-1_startup-1-60" points="148.54 79.71 176.48 116.59 159.73 143.46 143.33 98.1 148.54 79.71"/><path class="cls-7_startup-1-60" d="m145.59,105.31s3.71-3.07,4.97-8.24c0,0,3.67,7.63-.6,19.38l-4.37-11.14Z"/><path class="cls-1_startup-1-60" d="m128.64,86.09s3.72,13.62,9.18,21.57c2.21,3.23,6.7,4.06,9.89,1.8,3.97-2.81,8.52-7.75,7.41-15.29l-.31-13.03s-.48-8.16-9.93-10.77c-9.45-2.61-18.93,7.54-16.24,15.72Z"/><path class="cls-1_startup-1-60" d="m131.42,94.55l-1.81,6.46c-.45,1.6.92,3.11,2.55,2.84l5.42-.92-6.16-8.39Z"/><path class="cls-11_startup-1-60" d="m160.97,94.39l-4.04-18.77s8.72-6.48,2.69-11.26c-6.04-4.79-7.75,1.3-11.53-5.79-3.77-7.09-10.32-5.59-12.41.52s-3.01-.48-8.55,1.36c-5.53,1.84-5.73,4.83-3.87,8.8,1.86,3.97-7.67,3.56-7.08,9.47.59,5.91,2.75,10.85,15.96,5.16,13.21-5.69,9.37,9.5,28.82,10.5Z"/><path class="cls-1_startup-1-60" d="m146.9,92.24s-1.78-5.13,2.19-6.16c3.98-1.02,6.6,6.38,1.65,8.99l-3.84-2.84Z"/><path class="cls-2_startup-1-60" d="m277.01,412.12l17.57,14c18.67,14.89,42.41,21.91,66.18,19.58l19.77-1.94c3.11-.3,4.54-4.02,2.44-6.33l-32.14-35.41-73.81,10.09Z"/><path class="cls-2_startup-1-60" d="m277.01,313.82l17.57-14c18.67-14.89,42.41-21.91,66.18-19.58l19.77,1.94c3.11.3,4.54,4.02,2.44,6.33l-32.14,35.41-73.81-10.09Z"/><path class="cls-6_startup-1-60" d="m15.49,362.91s82.91,103.46,335.33,39.11v-78.23C98.4,259.46,15.49,362.91,15.49,362.91Z"/><path class="cls-5_startup-1-60" d="m182.26,303.02s-24.39,17.19-20.01,42.05c4.38,24.86,36.56,58.64,36.56,58.64,0,0-7.33,21.35,13.07,10.2l3.68-10.52-16.11-40.47-4.46-35.37,12.99-24.83-25.72.31Z"/><path class="cls-12_startup-1-60 targetColor" d="m159.73,143.46l16.75-26.88s58.38-5.34,79.92,41.38c21.54,46.72,31.33,106.2,31.33,106.2l-64,24.7s-117.59-45.08-64-145.41Z" style="fill: rgb(104, 225, 253);"/><path class="cls-10_startup-1-60" d="m287.73,264.17s24.1,51.27-8.68,56.93c-18.97,3.27-37.35,9.61-49.47,14.37-8.29,3.25-12.9,12.11-10.83,20.77l11.65,48.78-13.67,10.88-27.35-54.75c-8.88-17.78-4.47-39.33,10.68-52.19l23.66-20.08,64-24.7Z"/><path class="cls-5_startup-1-60" d="m203.92,185.97s-7.99,35.65,10.26,56.29c18.26,20.64,35.38,36.64,35.38,36.64l-25.83,9.97s-31.86-13.12-50.87-33.83c-19.01-20.72,12.06-75.35,31.06-69.07Z"/><path class="cls-12_startup-1-60 targetColor" d="m210.6,151.79c-1.61-29.2-40.96-37.29-54.78-11.52-3.84,7.16-6.86,15.41-7.92,24.54-3.74,32.35-38.77,166.56-38.77,166.56l20.74,6.07s56.36-102,75.78-156.14c4.09-11.41,5.41-21.18,4.95-29.5Z" style="fill: rgb(104, 225, 253);"/><rect class="cls-3_startup-1-60" x="98.71" y="343.73" width="52.16" height="12.31" rx="3.75" ry="3.75"/><path class="cls-9_startup-1-60" d="m210.6,151.79c-1.61-29.2-40.96-37.29-54.78-11.52-3.84,7.16-6.86,15.41-7.92,24.54-3.74,32.35-38.77,166.56-38.77,166.56l20.74,6.07s56.36-102,75.78-156.14c4.09-11.41,5.41-21.18,4.95-29.5Z"/><path class="cls-1_startup-1-60" d="m112.55,332.37s-19.09,15.54-5.88,21.35c13.22,5.82,23.19-16.29,23.19-16.29l-17.31-5.06Z"/><rect class="cls-2_startup-1-60" x="350.82" y="323.8" width="10.93" height="78.23"/><path class="cls-11_startup-1-60" d="m361.75,335.32s95.65-1.77,119.99,20.72c24.34,22.5-119.99,30.42-119.99,30.42v-51.15Z"/><path class="cls-8_startup-1-60" d="m361.75,349.89s73.58-2.48,77.82,6.16c4.24,8.63-77.82,17.4-77.82,17.4v-23.56Z"/><path class="cls-1_startup-1-60" d="m49.51,233.78s-22.29-7.4-12.76-22.08c9.53-14.69,18.85,11.11,18.85,11.11l-6.09,10.97Z"/><rect class="cls-11_startup-1-60" x="32.98" y="181.13" width="23.42" height="36.92" transform="translate(-61.6 24.85) rotate(-18.69)"/><path class="cls-12_startup-1-60 targetColor" d="m220.01,413.29s3.25,13.95-3.27,17.92c0,0,2.21,9.92,11.74,4.37,9.53-5.56,7.15-19.68,7.15-19.68l-7.61-8.98-8,6.37Z" style="fill: rgb(104, 225, 253);"/><path class="cls-2_startup-1-60" d="m82.84,321.23v83.36s-41.46-11.25-67.35-41.68c0,0,22.14-26.96,67.35-41.68Z"/></g><g id="panels_startup-1-60"><rect class="cls-6_startup-1-60" x="244.85" y="62.69" width="147.45" height="41.2"/><rect class="cls-6_startup-1-60" x="288.03" y="129.86" width="147.45" height="41.2"/><rect class="cls-6_startup-1-60" x="327.02" y="196.21" width="147.45" height="41.2"/></g></svg>