<svg version="1.1" id="Layer_1" xmlns="http://www.w3.org/2000/svg" xmlns:xlink="http://www.w3.org/1999/xlink" x="0px" y="0px" viewBox="0 0 500 500" style="width: 180px;" xml:space="preserve" data-imageid="superwoman-95" imageName="Superwoman" class="illustrations_image">
<style type="text/css">
	.st0_superwoman-95{fill:#B74BAD;}
	.st1_superwoman-95{fill:#7F247B;}
	.st2_superwoman-95{fill:#68E1FD;}
	.st3_superwoman-95{fill:#154549;}
	.st4_superwoman-95{fill:#FFC285;}
	.st5_superwoman-95{fill:#38727A;}
	.st6_superwoman-95{fill:#F77819;}
	.st7_superwoman-95{opacity:0.61;fill:#154549;enable-background:new    ;}
	.st8_superwoman-95{fill:#FAE60B;}
	.st9_superwoman-95{fill:#F9C60B;}
	.st10_superwoman-95{fill:#F5B00F;}
</style>
<ellipse id="Base_superwoman-95" class="st0_superwoman-95" cx="264.8" cy="370.4" rx="199.8" ry="66.3"/>
<ellipse id="Shadow_superwoman-95" class="st1_superwoman-95" cx="224.8" cy="391.9" rx="79.7" ry="21.5"/>
<g id="Character_superwoman-95">
	<path class="st2_superwoman-95 targetColor" d="M181,163.6c0,0,61.7,48.5,119.8,47.5c0,0-15,11.2,2.1,16.1s39.8-5.4,42.7,5.9s-8.8,25.5,8.3,29s34.9,0,34.9,0&#10;&#9;&#9;s-38.3,24.2-66.8,20.7s-121.1-18.5-131-76.5"/>
	<path class="st3_superwoman-95" d="M224.8,289.8c0.9-0.4,23.4,5.6,23.4,5.6l5,12l-15.3,5.4"/>
	<path class="st2_superwoman-95 targetColor" d="M296.5,307.3c-1.7-0.2-14.4-5-14.9-7.3s15.5,0.2,15.5,0.2l-0.7-7.9l-80.3-4.1c3.5,1.3,6.8,2.9,10.3,4.3&#10;&#9;&#9;c5.7,2.2,11.3,4.5,16.8,7.2c2.1,1,1.2,3.8-0.6,4.5c-9.1,3.7-17.3,9.4-23.9,16.8c9.4-2.2,58.6-13.1,64.4-2.1&#10;&#9;&#9;c2.6,4.9,4.9,18,9.4,18.7s5.9-10.6,6.5-18.4S298.1,307.5,296.5,307.3z"/>
	<path class="st3_superwoman-95" d="M260.1,181.3c1.4-3.7,2.6-7.5,3.9-11.3c1.7-5.3,3.7-10.9,4.2-16.6c-1-2.6-4.5-4.7-7-5.3&#10;&#9;&#9;c-3.1-0.8-6.4,0.6-9.6,0.5c-4.2-0.1-7.5-1.7-11.3-2.8c-4-1-8.3-0.8-12.2,0.6c-7.5,2.3-15.2,1.5-21.4-3.4c-3.6-2.8-6.3-5.1-10.8-6.3&#10;&#9;&#9;c-6.9-1.8-14-0.5-18.6,5.3c-4.1,5.2-5,12.1-0.6,17.5c2.2,2.7,5.4,3.9,8.7,4.9c3,0.9,5.9,2.7,9,3.2l0.3,0.1c2.9,0.5,5.9,0.3,8.8,1.2&#10;&#9;&#9;c3.7,1.1,7.1,2.9,10.7,4.2c4.8,1.7,9.4,1.1,14.4,0.4c6.3-0.8,9.6,1.2,14.5,4.7c0.3,0.2,0.6,0.4,0.9,0.6c3.4,2.1,7.4,3.1,11.4,3&#10;&#9;&#9;C256.9,181.8,258.5,181.6,260.1,181.3z"/>
	<path class="st4_superwoman-95" d="M146.6,140.4c-1.1-1.9-2.2-3.9-3.2-6c-0.3-3.7-0.5-7.5-0.4-11.2c0.3-1.6,0.3-3.2,0-4.7&#10;&#9;&#9;c-0.1-1.1-1.1-1.9-2.2-1.8c-0.1,0-0.3,0-0.4,0.1c-1.4,0.6-2.4,1.9-2.5,3.4c-0.2,1.2-0.4,2.5-0.6,3.8c-1.9-3.4-3.6-7-5-10.7&#10;&#9;&#9;c-0.9-2.3-4.7-1.1-3.7,1.2l1,2.5c-0.9-1.4-1.9-2.7-3-3.9c-1.3-1.5-4.4-0.6-3.5,1.7c1.2,3,2.7,6,4.4,8.8c-1.4-1.7-2.7-3.5-4-5.3&#10;&#9;&#9;c-1.5-2-4.7,0.1-3.3,2.2c1.8,2.5,3.7,5,5.7,7.3c-1.1-0.5-2.2-1-3.4-1.5c-2.3-1-4.1,2.5-1.8,3.5s4.4,2,6.6,3.1&#10;&#9;&#9;c0,0.1,0.1,0.2,0.1,0.2c3.4,6.1,6.9,12,10.5,17.9c1.3,2.1,4.6,0,3.3-2.2l-1.6-2.8c0.6-0.2,1.1-0.6,1.4-1.1c1,0.6,2.2,0.2,2.7-0.7&#10;&#9;&#9;c0.2-0.3,0.3-0.6,0.3-0.9c1,0.5,2.2,0.1,2.7-0.9C147,141.7,147,141,146.6,140.4z"/>
	<path class="st3_superwoman-95" d="M135.4,125.1c-2.2,2.4-4.3,5.2-3.4,8.6c0.2,0.7,1.3,0.4,1.1-0.2c-0.8-3,1.2-5.5,3.1-7.5&#10;&#9;&#9;C136.7,125.4,135.9,124.6,135.4,125.1z"/>
	<path class="st3_superwoman-95" d="M132.9,122.9c-1.4-2.9-2.6-5.8-3.6-8.8c-0.2-0.5-1-0.3-0.8,0.2c1.1,3.1,2.3,6.1,3.7,9&#10;&#9;&#9;C132.4,123.8,133.1,123.4,132.9,122.9z"/>
	<path class="st3_superwoman-95" d="M129.1,125c-2.2-3.2-4.1-6.7-5.4-10.4c-0.2-0.5-1-0.3-0.8,0.2c1.3,3.8,3.2,7.4,5.5,10.6&#10;&#9;&#9;C128.7,125.8,129.4,125.4,129.1,125z"/>
	<path class="st3_superwoman-95" d="M127.3,129.2c-2.1-2.4-4-5-5.6-7.8c-0.3-0.5-1-0.1-0.7,0.4c1.6,2.8,3.6,5.5,5.8,8&#10;&#9;&#9;C127.1,130.2,127.7,129.6,127.3,129.2z"/>
	<path class="st5_superwoman-95" d="M165.9,206.4c0,0-14.8,48.3-8.4,89.3c4.5,28.6,49.4,30.2,49.4,30.2l64.6,47.1c0,0-5.9,13.4,12.3-9.6&#10;&#9;&#9;c0,0-28.7-38.8-38.8-48.9s-16.3-43.1-20.2-53.1c-7.1-18.4-24.2-46.4-26.6-46.7"/>
	<path class="st6_superwoman-95" d="M200.1,197.9c-2-10.1-6.5-21.6-2.7-31.1c-0.4-1.3-3.9-1.6-4.4-2.3l-5.9-2.2c-11.3-0.4-22-5.2-29.9-13.3&#10;&#9;&#9;c-4.7-4.8-8.8-10.2-12.3-16c-4.1,2.4-7.7,5.5-10.7,9.1c-1.6,1.8-3.1,3.7-4.4,5.8c5.8,12.1,17,29.6,34.8,36.4c0,0,0.6,6.7,1.2,22.2&#10;&#9;&#9;c0,0,13.4,12.1,34.7,7.9C200.4,208.2,200.3,204,200.1,197.9z"/>
	<path class="st6_superwoman-95" d="M194.5,164.2c0,0,22.5,23.1,65.1,44.6c0,0-2.4,13.4-8,18.4c0,0-49.1-22.2-60.4-42.1"/>
	<path class="st4_superwoman-95" d="M177.6,148.3c0,0-4.7,13.7,4,19.9s20.6-6.8,17.3-18.9S183.1,136.5,177.6,148.3z"/>
	<path class="st3_superwoman-95" d="M200.1,166.2c-1.5,0.3-3-0.1-4-1.2c-1.3-1.3-1.2-3.1-1.2-4.9c0.1-2.2-1-4.4-2.9-5.6c-2.3-1.6-5.2-2-7.2-3.9&#10;&#9;&#9;c-0.2-0.2-0.4-0.4-0.6-0.6c0.3,0.2,0.6,0.5,0.9,0.7c3.4,2,8.4,2.5,10,3.4s-0.9,7,1.9,9.8s9.5-14.4,5.6-19.1s-16.6-10.1-22.1-2.4&#10;&#9;&#9;c0,0,0.2,0.9,0.6,2c0.1,2.1,0.9,4.1,2.2,5.7c2.1,2.6,5.1,3.1,7.8,4.7c1.8,0.9,2.9,2.6,3.1,4.6c0.1,1.6-0.2,3.3,0.5,4.8&#10;&#9;&#9;c1,2.1,3.4,3.3,5.7,2.8C200.8,166.9,200.6,166.1,200.1,166.2z"/>
	<path class="st2_superwoman-95 targetColor" d="M292,389.2c-1-1.4-6.5-13.8-5.2-15.8s10.7,11.2,10.7,11.2l5.1-6l-53.4-60.1c1.5,3.4,2.7,6.9,4.1,10.3&#10;&#9;&#9;c2.4,5.6,4.7,11.2,6.6,17c0.7,2.2-1.9,3.5-3.6,2.7c-9.1-4-18.2-7.3-28-6.8c8.2,5.2,45.4,33.4,46,46c0.3,5.5-9.4,16.1-6.7,19.8&#10;&#9;&#9;s11.7-3.3,17.7-8.3S293,390.6,292,389.2z"/>
	<path class="st3_superwoman-95" d="M207.2,326.5c2.6,2,5.7,3.5,8,5.9c-0.1-0.1-0.1-0.3-0.2-0.4c-19.5-22.2-32-49.7-35.9-79&#10;&#9;&#9;c-0.3-1.9-3.2-1.1-2.9,0.8c3.6,26.3,14,51.2,30.1,72.3C206.6,326.1,206.9,326.3,207.2,326.5z"/>
	<path class="st2_superwoman-95 targetColor" d="M176.5,186.2c0,0,2.5-8.6,3.9-8.2s2.1,9.6,2.6,9.8c1.5,0.4,6.3,1.1,7,2.3c0.5,0.9-6.2,2.8-6.2,2.8&#10;&#9;&#9;s3.6,9.2,2.1,9.9s-6.2-6.8-7-7c-1.3-0.3-6.2,5.1-7.1,3.5s3-8.4,3-8.4s-4.9-4.5-4.2-6.5C170.8,183.6,176.5,186.2,176.5,186.2z"/>
	<path class="st2_superwoman-95 targetColor" d="M345.6,243.7c0,0-23.9,9.6-60.6,3.4c0,0,28.1,9,59.7,7.5C344.7,254.6,345,248.8,345.6,243.7z"/>
	<path class="st2_superwoman-95 targetColor" d="M300.9,211.1c0,0-29.2,0.6-55.3-11.3c0,0,31.3,15.9,50.1,17.1L300.9,211.1z"/>
	<path class="st2_superwoman-95 targetColor" d="M388.9,262.2c0,0-33.9,29.6-80.3,18.5c0,0,44.2,0,67.5-17.1L388.9,262.2z"/>
	<path class="st2_superwoman-95 targetColor" d="M281.5,228.3c-2.7-1.8-5.6-3.4-8.6-4.7c2.1,0.6,4.2,1.3,6.3,2.1c2.4,0.9,3.9-2.8,1.5-3.6&#10;&#9;&#9;c-2.9-1.1-5.9-2-8.9-2.8c1.2-0.2,2.5-0.4,3.7-0.7c2.5-0.5,2-4.4-0.5-3.9s-4.7,0.9-7.1,1.2c-0.1,0-0.2-0.1-0.2-0.1&#10;&#9;&#9;c-2.8-1.4-5.6-2.8-8.4-4.1c-1,4.4-2.8,8.5-5.3,12.2c2.3,2.8,4.5,5.7,6.5,8.8c0.7,1.4,1.5,2.8,2.6,3.9c0.7,0.9,1.9,1,2.8,0.3&#10;&#9;&#9;c0.1-0.1,0.2-0.2,0.3-0.3c0.8-1.3,0.9-2.9,0.1-4.2c-0.5-1.1-1.1-2.3-1.6-3.4c3.5,1.8,6.9,3.8,10.2,6c2.1,1.4,4.5-1.7,2.4-3.1&#10;&#9;&#9;l-2.3-1.5c1.5,0.6,3.1,1.1,4.7,1.6C281.5,232.2,283.5,229.6,281.5,228.3z"/>
	<path class="st2_superwoman-95 targetColor" d="M268.9,227c2.8,1.6,5.4,3.4,8,5.3c0.4,0.3,1-0.3,0.6-0.6c-2.6-1.9-5.3-3.7-8.1-5.4&#10;&#9;&#9;C268.8,226,268.4,226.8,268.9,227z"/>
	<path class="st2_superwoman-95 targetColor" d="M270.8,223.2c3.7,1.4,7.2,3.3,10.3,5.6c0.4,0.3,1-0.3,0.6-0.6c-3.2-2.4-6.8-4.3-10.5-5.7&#10;&#9;&#9;C270.7,222.3,270.3,223,270.8,223.2z"/>
	<path class="st2_superwoman-95 targetColor" d="M270,218.7c3.1,0.8,6.1,1.9,9,3.3c0.5,0.2,0.9-0.5,0.4-0.7c-3-1.4-6.1-2.6-9.3-3.4c-0.2,0-0.4,0.2-0.4,0.5&#10;&#9;&#9;C269.8,218.5,269.9,218.6,270,218.7z"/>
	<path class="st7_superwoman-95" d="M345.6,243.7c0,0-23.9,9.6-60.6,3.4c0,0,28.1,9,59.7,7.5C344.7,254.6,345,248.8,345.6,243.7z"/>
	<path class="st7_superwoman-95" d="M300.9,211.1c0,0-29.2,0.6-55.3-11.3c0,0,31.3,15.9,50.1,17.1L300.9,211.1z"/>
	<path class="st7_superwoman-95" d="M388.9,262.2c0,0-33.9,29.6-80.3,18.5c0,0,44.2,0,67.5-17.1L388.9,262.2z"/>
	<path class="st4_superwoman-95" d="M281.5,228.3c-2.7-1.8-5.6-3.4-8.6-4.7c2.1,0.6,4.2,1.3,6.3,2.1c2.4,0.9,3.9-2.8,1.5-3.6&#10;&#9;&#9;c-2.9-1.1-5.9-2-8.9-2.8c1.2-0.2,2.5-0.4,3.7-0.7c2.5-0.5,2-4.4-0.5-3.9s-4.7,0.9-7.1,1.2c-0.1,0-0.2-0.1-0.2-0.1&#10;&#9;&#9;c-2.8-1.4-5.6-2.8-8.4-4.1c-1,4.4-2.8,8.5-5.3,12.2c2.3,2.8,4.5,5.7,6.5,8.8c0.7,1.4,1.5,2.8,2.6,3.9c0.7,0.9,1.9,1,2.8,0.3&#10;&#9;&#9;c0.1-0.1,0.2-0.2,0.3-0.3c0.8-1.3,0.9-2.9,0.1-4.2c-0.5-1.1-1.1-2.3-1.6-3.4c3.5,1.8,6.9,3.8,10.2,6c2.1,1.4,4.5-1.7,2.4-3.1&#10;&#9;&#9;l-2.3-1.5c1.5,0.6,3.1,1.1,4.7,1.6C281.5,232.2,283.5,229.6,281.5,228.3z"/>
	<path class="st3_superwoman-95" d="M268.9,227c2.8,1.6,5.4,3.4,8,5.3c0.4,0.3,1-0.3,0.6-0.6c-2.6-1.9-5.3-3.7-8.1-5.4&#10;&#9;&#9;C268.8,226,268.4,226.8,268.9,227z"/>
	<path class="st3_superwoman-95" d="M270.8,223.2c3.7,1.4,7.2,3.3,10.3,5.6c0.4,0.3,1-0.3,0.6-0.6c-3.2-2.4-6.8-4.3-10.5-5.7&#10;&#9;&#9;C270.7,222.3,270.3,223,270.8,223.2z"/>
	<path class="st3_superwoman-95" d="M270,218.7c3.1,0.8,6.1,1.9,9,3.3c0.5,0.2,0.9-0.5,0.4-0.7c-3-1.4-6.1-2.6-9.3-3.4c-0.2,0-0.4,0.2-0.4,0.5&#10;&#9;&#9;C269.8,218.5,269.9,218.6,270,218.7z"/>
	<path class="st2_superwoman-95 targetColor" d="M165.8,204.5l-1.1,6c0,0,16,13.7,35.9,7.4l-0.1-6.8C188.5,214.2,175.8,211.7,165.8,204.5z"/>
</g>
<g id="Stars_superwoman-95">
	<polygon class="st8_superwoman-95" points="382.8,183.2 390.1,178.4 403.7,186.4 400.7,194.1 &#9;"/>
	<path class="st9_superwoman-95" d="M392.1,219.3l4.9-15.4l-14.1-20.7c0,0,17.9,10.6,17.9,10.6s5.9-14.3,5.9-14.3l6.3,21.9l17.6,11.9l-13.8,3&#10;&#9;&#9;l5,21.8l-14.7-20.3L392.1,219.3z"/>
	<polygon class="st8_superwoman-95" points="412.8,201.4 430.4,213.3 437.9,208.6 420.1,196.5 &#9;"/>
	<polygon class="st10_superwoman-95" points="406.5,179.5 413.9,174.8 420.1,196.5 412.8,201.4 &#9;"/>
	<polygon class="st10_superwoman-95" points="416.6,216.3 421.6,238.1 428.8,233.3 424.6,214.6 &#9;"/>
	<polygon class="st8_superwoman-95" points="57.1,135.6 64.4,130.9 77.9,138.8 75,146.6 &#9;"/>
	<path class="st9_superwoman-95" d="M66.3,171.8l4.9-15.4l-14.1-20.7c0,0,17.9,10.6,17.9,10.5s5.9-14.3,5.9-14.3l6.3,21.9l17.6,11.9l-13.8,3&#10;&#9;&#9;l5,21.8l-14.7-20.3L66.3,171.8z"/>
	<polygon class="st8_superwoman-95" points="87.1,153.8 104.7,165.8 112.2,161 94.3,149 &#9;"/>
	<polygon class="st10_superwoman-95" points="80.8,131.9 88.2,127.2 94.3,149 87.1,153.8 &#9;"/>
	<polygon class="st10_superwoman-95" points="90.8,168.8 95.8,190.5 103.1,185.7 98.8,167 &#9;"/>
	<polygon class="st8_superwoman-95" points="274.6,80.4 279.4,77.3 288.3,82.5 286.4,87.6 &#9;"/>
	<path class="st9_superwoman-95" d="M280.7,104.2l3.2-10.2l-9.3-13.6c0,0,11.8,7,11.7,6.9s3.9-9.3,3.9-9.3l4.1,14.4l11.5,7.8l-9.1,2l3.3,14.3&#10;&#9;&#9;l-9.7-13.3L280.7,104.2z"/>
	<polygon class="st8_superwoman-95" points="294.3,92.4 305.9,100.2 310.8,97.1 299.1,89.2 &#9;"/>
	<polygon class="st10_superwoman-95" points="290.2,78 295.1,74.9 299.1,89.2 294.3,92.4 &#9;"/>
	<polygon class="st10_superwoman-95" points="296.8,102.2 300.1,116.5 304.9,113.3 302.1,101 &#9;"/>
</g>
</svg>